<svg xmlns="http://www.w3.org/2000/svg" xmlns:xlink="http://www.w3.org/1999/xlink" width="31" height="32"><defs><path id="a" d="M0 .321h28.674V29H0z"/><path id="c" d="M.639.091h29.135v29.14H.639z"/></defs><g fill="none" fill-rule="evenodd"><g transform="translate(0 2.91)"><mask id="b" fill="#fff"><use xlink:href="#a"/></mask><path fill="#211256" d="M17.36 14.662a3.027 3.027 0 0 1-3.022 3.022 3.024 3.024 0 0 1-3.021-3.022 3.024 3.024 0 0 1 3.02-3.022 3.027 3.027 0 0 1 3.024 3.022m8.613-3.813-1.962-.143q-.008-.059-.013-.115l1.26-1.457a2.93 2.93 0 0 0-.143-3.976l-1.271-1.27c-1.058-1.063-2.842-1.126-3.976-.148l-1.485 1.281-.093-.073-.14-1.92a2.933 2.933 0 0 0-2.91-2.707H13.44a2.93 2.93 0 0 0-2.913 2.707l-.143 1.955-.121.014L8.81 3.743c-1.131-.98-3.104-1.827-4.164-.767L3.563 5.16c-.677 1.437-1.14 2.818-.146 3.976l1.282 1.482-.074.095-2.62-1.328C2.006 9.335 0 12.241 0 13.761v1.801a2.925 2.925 0 0 0 2.705 2.912l1.96.143-.067-.575-1.181 2.148a2.93 2.93 0 0 0 .144 3.973l1.273 1.273c1.058 1.061 2.842 1.126 3.975.145l1.483-1.28q.05.037.095.074l.138 1.917A2.93 2.93 0 0 0 13.435 29h1.803c.989 0 1.875-.502 2.405-1.269.287-.415 1.727-2.548 1.727-2.548.039-.005-.998-.856-.958-.86l1.45 1.256c1.104.957 2.953.886 3.977-.142l3.015-3.727c1.073-1.076-.604-.368-1.597-1.52l-1.282-1.483.073-.094 1.917-.139a2.93 2.93 0 0 0 2.709-2.912v-1.789a2.92 2.92 0 0 0-2.7-2.924" mask="url(#b)"/></g><path fill="#6916A5" d="M18.86 17.572a4.53 4.53 0 0 1-4.522 4.522 4.526 4.526 0 0 1-4.521-4.522 4.526 4.526 0 0 1 4.52-4.522 4.53 4.53 0 0 1 4.524 4.522m7.002-2.316-2.421-.178c-.338-.025-.685-.296-.757-.512-.165-.49-.27-1.474-.147-1.67l1.588-1.835a1.44 1.44 0 0 0-.07-1.931l-1.274-1.274c-.496-.498-1.401-.53-1.933-.07L19.012 9.37c-.226.196-.675.282-.887.175-.465-.231-1.24-.854-1.294-1.077l-.175-2.42A1.444 1.444 0 0 0 15.24 4.73H13.44c-.728 0-1.364.59-1.417 1.317l-.177 2.42c-.025.339-.297.685-.513.758a5 5 0 0 1-1.271.197c-.376 0-.4-.052-.398-.052L7.828 7.787c-.53-.46-1.434-.427-1.931.069L4.623 9.13a1.447 1.447 0 0 0-.071 1.933l1.587 1.836c.222.256.277.688.177.887-.232.465-.857 1.242-1.08 1.296l-2.421.174A1.44 1.44 0 0 0 1.5 16.67v1.8c0 .73.59 1.366 1.315 1.416l2.422.178c.338.024.684.295.756.51.164.492.268 1.477.146 1.672L4.552 24.08a1.443 1.443 0 0 0 .07 1.93l1.274 1.276c.496.497 1.4.53 1.932.069l1.835-1.586c.227-.196.68-.281.889-.176.465.233 1.242.857 1.295 1.079l.174 2.42a1.44 1.44 0 0 0 1.415 1.317h1.802c.728 0 1.364-.59 1.416-1.317l.176-2.42c.024-.337.296-.684.512-.756.206-.07.792-.2 1.275-.2.298 0 .392.052.394.052v-.001l1.836 1.588c.252.219.582.34.926.34.379 0 .745-.148 1.005-.41l1.273-1.274c.514-.514.546-1.38.07-1.931l-1.586-1.836c-.22-.257-.277-.691-.176-.89.233-.464.856-1.238 1.077-1.292l2.422-.176a1.44 1.44 0 0 0 1.316-1.415v-1.8a1.43 1.43 0 0 0-1.311-1.416"/><g transform="translate(1 -.09)"><mask id="d" fill="#fff"><use xlink:href="#c"/></mask><path fill="#211256" d="M15.207 17.454a2.794 2.794 0 0 1-2.791-2.792 2.794 2.794 0 0 1 2.79-2.792 2.796 2.796 0 0 1 2.793 2.791 2.795 2.795 0 0 1-2.792 2.793m14.567-3.674a3.15 3.15 0 0 0-2.915-3.16l-1.609-.118 1.051-1.215a3.16 3.16 0 0 0-.152-4.29l-1.273-1.272c-1.14-1.144-3.065-1.213-4.288-.159L19.367 4.62l-.116-1.609a3.164 3.164 0 0 0-3.14-2.919h-1.802a3.16 3.16 0 0 0-3.142 2.92l-.118 1.61L9.832 3.57c-1.224-1.06-3.147-.99-4.289.154L4.269 4.997a3.17 3.17 0 0 0-.156 4.29l1.053 1.217-1.611.116a3.163 3.163 0 0 0-2.916 3.141v1.801a3.156 3.156 0 0 0 2.918 3.143l1.609.117-1.054 1.218a3.163 3.163 0 0 0 .156 4.287l1.27 1.27c1.142 1.15 3.067 1.22 4.29.16L11.05 24.7l.115 1.61a3.16 3.16 0 0 0 3.14 2.92h1.802a3.16 3.16 0 0 0 3.143-2.922l.116-1.606 1.213 1.05c1.184 1.027 3.19.96 4.291-.152l1.276-1.275a3.164 3.164 0 0 0 .155-4.285l-1.054-1.22 1.604-.115a3.16 3.16 0 0 0 2.923-3.143z" mask="url(#d)"/></g><path fill="#4CE0AA" d="M20.73 14.572a4.53 4.53 0 0 1-4.523 4.522 4.526 4.526 0 0 1-4.52-4.522 4.526 4.526 0 0 1 4.52-4.522 4.53 4.53 0 0 1 4.523 4.522m7.003-2.316-2.422-.178c-.337-.025-.684-.296-.756-.512-.165-.49-.27-1.474-.148-1.67l1.587-1.835a1.44 1.44 0 0 0-.069-1.931l-1.274-1.274c-.497-.498-1.4-.53-1.933-.07L20.882 6.37c-.226.196-.675.282-.887.175-.465-.231-1.24-.854-1.293-1.077l-.175-2.42A1.445 1.445 0 0 0 17.11 1.73h-1.8c-.729 0-1.365.59-1.418 1.317l-.178 2.42c-.024.339-.296.685-.511.758a5 5 0 0 1-1.271.197c-.377 0-.4-.052-.399-.052L9.699 4.787c-.53-.46-1.434-.427-1.932.069L6.493 6.13a1.447 1.447 0 0 0-.07 1.933l1.587 1.836c.221.256.277.688.176.887-.232.465-.857 1.242-1.08 1.296l-2.42.174A1.44 1.44 0 0 0 3.37 13.67v1.8c0 .73.59 1.366 1.314 1.416l2.422.178c.338.024.684.295.757.51.162.492.267 1.477.145 1.672L6.422 21.08a1.443 1.443 0 0 0 .07 1.93l1.274 1.276c.495.497 1.4.53 1.931.069l1.836-1.586c.226-.196.68-.281.889-.176.464.233 1.24.857 1.294 1.079l.175 2.42a1.44 1.44 0 0 0 1.415 1.317h1.802c.727 0 1.363-.59 1.415-1.317l.177-2.42c.024-.337.296-.684.512-.756.206-.07.791-.2 1.274-.2.299 0 .392.052.395.052v-.001l1.835 1.588c.252.219.582.34.926.34.38 0 .745-.148 1.006-.41l1.273-1.274c.514-.514.546-1.38.07-1.931l-1.587-1.836c-.22-.257-.276-.691-.175-.89.233-.464.855-1.238 1.076-1.292l2.422-.176a1.44 1.44 0 0 0 1.317-1.415v-1.8a1.43 1.43 0 0 0-1.311-1.416"/></g></svg>