<svg xmlns="http://www.w3.org/2000/svg" xmlns:xlink="http://www.w3.org/1999/xlink" width="45" height="40"><defs><path id="a" d="M0 .443h44.416V35H0z"/></defs><g fill="none" fill-rule="evenodd"><g transform="translate(0 4.525)"><mask id="b" fill="#fff"><use xlink:href="#a"/></mask><path fill="#211256" d="M39.332 5.761a3.1 3.1 0 0 0-.849-.99C33.036.624 27.698.448 27.458.442c-1.11-.006-2.105.532-2.683 1.443l-.17.27a30 30 0 0 0-4.816-.007A3.08 3.08 0 0 0 16.942.444C16.717.45 11.38.625 5.933 4.77a3.1 3.1 0 0 0-.849.991C4.876 6.143 0 15.262 0 26.627c0 .664.218 1.323.615 1.855.168.226 4.207 5.531 12.12 6.495q.188.023.376.023c1.005 0 1.952-.49 2.535-1.312.01-.014.867-1.223 1.685-2.314l.205.036c3.25.645 6.483.668 9.596.068l.037-.007c.785 1.052 1.581 2.19 1.591 2.203a3.11 3.11 0 0 0 2.853 1.31c8.448-.844 12.154-6.435 12.308-6.674a3.1 3.1 0 0 0 .495-1.683c0-11.356-4.876-20.483-5.084-20.866" mask="url(#b)"/></g><path fill="#6916A5" d="M29.164 33.488a93 93 0 0 1 2.141 2.932c7.063-.706 10.006-5.268 10.006-5.268 0-10.698-4.709-19.386-4.709-19.386-4.709-3.585-9.204-3.693-9.204-3.693l-.48.76c5.564 1.737 8.133 4.236 8.133 4.236-3.37-1.9-6.69-2.824-9.793-3.205a27 27 0 0 0-6.635.055c-.215 0-.375.054-.535.054-1.124.11-3.906.543-7.439 2.118-1.23.543-1.926.979-1.926.979s2.73-2.607 8.616-4.345l-.32-.652s-4.497.108-9.206 3.692c0 0-4.709 8.69-4.709 19.388 0 0 3.318 4.453 10.007 5.267 0 0 1.231-1.738 2.194-2.986-4.174-1.25-5.726-3.91-5.726-3.91s.321.216.91.543l.107.107.321.165c.803.488 1.66.814 2.408 1.14 1.338.543 2.943 1.086 4.816 1.412 2.461.489 5.351.651 8.455.053a21.3 21.3 0 0 0 4.762-1.412c1.124-.433 2.41-1.085 3.746-1.954-.053 0-1.659 2.716-5.94 3.91m-13.057-5.43c-1.819 0-3.317-1.684-3.317-3.693s1.498-3.693 3.317-3.693c1.873 0 3.371 1.683 3.32 3.692 0 2.01-1.5 3.694-3.32 3.694m11.934 0c-1.819 0-3.318-1.684-3.318-3.693s1.5-3.693 3.318-3.693c1.872 0 3.317 1.683 3.317 3.692s-1.445 3.694-3.317 3.694"/><path fill="#211256" d="M39.332 5.318a3.1 3.1 0 0 0-.849-.99C33.036.181 27.698.005 27.458 0c-1.11-.007-2.105.531-2.683 1.443l-.17.27a30 30 0 0 0-4.816-.008A3.09 3.09 0 0 0 16.942.001c-.225.005-5.563.181-11.009 4.326a3.1 3.1 0 0 0-.849.991C4.876 5.701 0 14.82 0 26.184c0 .664.218 1.323.615 1.856.168.225 4.207 5.53 12.12 6.494q.188.023.376.023c1.005 0 1.952-.49 2.535-1.312.01-.013.867-1.223 1.685-2.314l.205.037c3.25.644 6.483.667 9.596.067l.037-.007c.785 1.053 1.581 2.19 1.591 2.203a3.11 3.11 0 0 0 2.853 1.311c8.448-.845 12.154-6.436 12.308-6.675a3.1 3.1 0 0 0 .495-1.683c0-11.356-4.876-20.483-5.084-20.866"/><path fill="#4CE0AA" d="M29.164 28.52a93 93 0 0 1 2.141 2.933c7.063-.706 10.006-5.268 10.006-5.268 0-10.698-4.709-19.387-4.709-19.387-4.709-3.584-9.204-3.693-9.204-3.693l-.48.76c5.564 1.738 8.133 4.237 8.133 4.237-3.37-1.901-6.69-2.824-9.793-3.205a27 27 0 0 0-6.635.055c-.215 0-.375.054-.535.054-1.124.109-3.906.543-7.439 2.118-1.23.543-1.926.978-1.926.978s2.73-2.607 8.616-4.345l-.32-.652s-4.497.109-9.206 3.693c0 0-4.709 8.689-4.709 19.387 0 0 3.318 4.453 10.007 5.268 0 0 1.231-1.738 2.194-2.987-4.174-1.25-5.726-3.91-5.726-3.91s.321.217.91.543l.107.108.321.163c.803.489 1.66.815 2.408 1.14 1.338.544 2.943 1.087 4.816 1.413 2.461.488 5.351.65 8.455.054a21.3 21.3 0 0 0 4.762-1.412c1.124-.435 2.41-1.086 3.746-1.955-.053 0-1.659 2.715-5.94 3.91m-13.057-5.431c-1.819 0-3.317-1.683-3.317-3.692s1.498-3.693 3.317-3.693c1.873 0 3.371 1.684 3.32 3.693 0 2.009-1.5 3.692-3.32 3.692m11.934 0c-1.819 0-3.318-1.683-3.318-3.692s1.5-3.693 3.318-3.693c1.872 0 3.317 1.684 3.317 3.693s-1.445 3.692-3.317 3.692"/></g></svg>