<svg xmlns="http://www.w3.org/2000/svg" xmlns:xlink="http://www.w3.org/1999/xlink" width="30" height="34"><defs><path id="a" d="M.897.051H20.54v21.817H.897z"/></defs><g fill="none" fill-rule="evenodd"><path stroke="#211256" stroke-width="1.7" d="M7.748 12.973c-.08.032-.156.076-.232.12.076-.043.151-.088.232-.12Zm.372-.109c-.077.014-.152.04-.227.063.075-.024.15-.048.227-.062Zm-.716.29Zm1.796-.226c-.073-.023-.146-.049-.223-.062.077.014.15.04.223.063Zm.372.164c-.074-.043-.147-.087-.226-.12.08.034.152.078.226.12Zm.42.311Zm-1.435-.572h.061c.067 0 .13.011.194.018-.085-.008-.168-.02-.255-.018-.093-.005-.182.008-.272.017.062-.007.12-.02.183-.02q.043 0 .09.004Zm12.147.02c-.045.005-.09.004-.135.012.044-.008.09-.006.135-.012Zm-.298.06Zm1.175.029c-.085-.03-.17-.06-.258-.076.088.016.173.046.258.075Zm.303.135c-.065-.036-.128-.076-.196-.103.068.027.131.067.196.103Zm.457.329Zm-1.154-.553c-.08-.01-.16-.024-.24-.024.08 0 .16.014.24.024ZM15.58 22.75c.08-.034.153-.078.228-.122-.075.044-.149.088-.228.122Zm-.37.108c.078-.014.152-.038.226-.062-.075.024-.148.049-.226.063Zm.706-.29Zm-1.156.323c.097.006.19-.006.282-.015-.062.005-.119.018-.183.018q-.048 0-.099-.002Z"/><path fill="#6916A5" d="M25.983 18.876a3.387 3.387 0 0 0-3.384 3.383v4.023H6.767V22.26a3.39 3.39 0 0 0-3.385-3.383A3.386 3.386 0 0 0 .002 22.26v7.406a3.386 3.386 0 0 0 3.381 3.383h22.6a3.387 3.387 0 0 0 3.384-3.383V22.26a3.387 3.387 0 0 0-3.383-3.383"/><path fill="#6916A5" d="M23.491 11.356a3.58 3.58 0 0 0-2.545-1.053c-.96 0-1.863.373-2.543 1.05l-.035.036V5.398A3.6 3.6 0 0 0 14.771 1.8a3.6 3.6 0 0 0-3.596 3.597v5.99l-.036-.033a3.55 3.55 0 0 0-2.52-1.05h-.042l-.109-.001c-.946 0-1.839.373-2.517 1.049a3.58 3.58 0 0 0-1.055 2.545c0 .96.374 1.863 1.052 2.543l5.692 6.677c.68.677 2.031 1.4 3.017 1.4h.202c.94 0 2.447-1.806 3.124-2.484l5.507-5.593a3.604 3.604 0 0 0 .001-5.085"/><path fill="#211256" d="M25.983 19.777a3.387 3.387 0 0 0-3.384 3.383v4.023H6.767V23.16a3.39 3.39 0 0 0-3.385-3.383A3.386 3.386 0 0 0 .002 23.16v7.406a3.386 3.386 0 0 0 3.381 3.383h22.6a3.387 3.387 0 0 0 3.384-3.383V23.16a3.387 3.387 0 0 0-3.383-3.383m0 1.7c.927 0 1.683.755 1.683 1.683v7.406c0 .928-.756 1.683-1.683 1.683h-22.6A1.685 1.685 0 0 1 1.7 30.566V23.16c0-.928.754-1.683 1.681-1.683.93 0 1.684.755 1.684 1.683v5.723H24.3V23.16c0-.928.756-1.683 1.684-1.683"/><path fill="#4CE0AA" d="M13.224 19.617c.37.37.88.575 1.434.575q.052 0 .102-.002a1.88 1.88 0 0 0 1.456-.573l6.126-6.125a1.977 1.977 0 0 0 0-2.79l-.001-.001a1.977 1.977 0 0 0-2.79.001l-2.806 2.808V3.597a1.975 1.975 0 0 0-1.973-1.973 1.975 1.975 0 0 0-1.973 1.973v9.913l-2.807-2.809a1.93 1.93 0 0 0-1.436-.572 1.966 1.966 0 0 0-2.034 1.968c0 .526.205 1.022.577 1.395z"/><path fill="#4CE0AA" d="M25.983 18.7a1.76 1.76 0 0 0-1.76 1.759v5.647H5.143v-5.647a1.76 1.76 0 0 0-1.76-1.76c-.968 0-1.757.79-1.757 1.76v7.406c0 .969.79 1.758 1.757 1.758h22.6a1.76 1.76 0 0 0 1.76-1.758v-7.406a1.76 1.76 0 0 0-1.76-1.76"/><g transform="translate(4 -.05)"><mask id="b" fill="#fff"><use xlink:href="#a"/></mask><path fill="#211256" d="M10.772.05a3.6 3.6 0 0 0-3.597 3.598v5.99l-.035-.034a3.55 3.55 0 0 0-2.521-1.05l-.041.002-.11-.002c-.945 0-1.84.372-2.516 1.049a3.58 3.58 0 0 0-1.055 2.546 3.58 3.58 0 0 0 1.052 2.542l6.127 6.126a3.62 3.62 0 0 0 2.582 1.05l.099-.001.103.002c.939 0 1.829-.374 2.507-1.053l6.124-6.124a3.604 3.604 0 0 0 0-5.085 3.58 3.58 0 0 0-2.544-1.053c-.96 0-1.863.373-2.543 1.05l-.035.036V3.648A3.6 3.6 0 0 0 10.772.05m0 1.625c1.088 0 1.973.884 1.973 1.972v9.913l2.806-2.807a1.97 1.97 0 0 1 1.396-.577c.505 0 1.01.192 1.394.576.769.769.769 2.02 0 2.79l-6.125 6.125a1.88 1.88 0 0 1-1.356.575q-.049 0-.1-.002-.05.002-.102.002a2 2 0 0 1-1.434-.575l-6.125-6.124a1.97 1.97 0 0 1-.577-1.395c0-.528.205-1.023.577-1.396a1.93 1.93 0 0 1 1.369-.575q.045 0 .088.002l.063-.001c.52 0 1 .203 1.373.574l2.807 2.808V3.648c0-1.088.885-1.972 1.973-1.972" mask="url(#b)"/></g><path fill="#211256" d="M25.983 17.075a3.387 3.387 0 0 0-3.384 3.383v4.023H6.767v-4.023a3.387 3.387 0 0 0-3.385-3.383 3.386 3.386 0 0 0-3.381 3.383v7.406a3.386 3.386 0 0 0 3.381 3.383h22.6a3.387 3.387 0 0 0 3.384-3.383v-7.406a3.387 3.387 0 0 0-3.383-3.383m0 1.625c.97 0 1.758.789 1.758 1.758v7.406a1.76 1.76 0 0 1-1.758 1.759h-22.6a1.76 1.76 0 0 1-1.758-1.759v-7.406c0-.969.79-1.758 1.757-1.758.97 0 1.76.789 1.76 1.758v5.647h19.082v-5.647a1.76 1.76 0 0 1 1.759-1.758"/><path fill="#211256" d="M23.491 13.157a3.4 3.4 0 0 0-.42-.346q-.129.239-.26.475v.898c0 .996.073 2.367-.469 2.91l-5.25 5.42c-.872.87-1.699 1.28-2.233 1.28l-.099-.001q-.052.002-.103.002c-.554 0-1.688-.25-2.375-1.12l-5.184-5.58a1.96 1.96 0 0 1-.577-1.395c0-.124.013-.951.035-1.76-.174-.21-.346-.425-.522-.632-.04-.04-.07-.086-.102-.131-.5.51-.865-1.741-1-1.057-.045.228-.036 3.343-.036 3.58 0 .959.374 1.862 1.052 2.542l5.186 5.582c.874 1.118 2.537 1.595 3.523 1.595l.1-.001.102.002c.94 0 2.598-.684 3.381-1.758l5.25-5.42c.93-.93 1.064-2.023 1.064-3.434 0-.084.027-2.863 0-2.943-.169-.516-.655 1.702-1.063 1.292"/></g></svg>