<svg xmlns="http://www.w3.org/2000/svg" xmlns:xlink="http://www.w3.org/1999/xlink" width="25" height="29"><defs><path id="a" d="M0 0h24.962v28.78H0z"/></defs><g fill="none" fill-rule="evenodd"><path fill="#6916A5" d="M22.838 2.048a2.62 2.62 0 0 0-3.698.174l-6.76 6.952-6.76-6.952a2.62 2.62 0 0 0-3.699-.174c-1.01.92-1.04 5.91-.175 6.86l5.446 5.601-5.446 5.601c-.865.951-.836 5.94.175 6.86a2.62 2.62 0 0 0 3.698-.174l6.761-6.953 6.76 6.953a2.62 2.62 0 0 0 3.698.174c1.011-.92 1.04-5.909.175-6.86l-5.446-5.6 5.446-5.602c.865-.95.836-5.94-.175-6.86"/><path fill="#211256" d="M3.677 2.046c-.466 0-.93.167-1.3.503-.675.614-.775 5.193-.13 5.903l5.89 6.057-5.904 6.073c-.18.197-.453 1.291-.425 2.958.028 1.69.35 2.73.57 2.93.79.72 2.021.66 2.74-.13l7.262-7.469 7.245 7.452a1.95 1.95 0 0 0 2.757.146c.22-.199.541-1.239.57-2.929.03-1.667-.246-2.76-.44-2.974l-5.89-6.057 5.905-6.073c.63-.694.53-5.273-.145-5.887a1.943 1.943 0 0 0-2.74.13l-7.262 7.468-7.246-7.452a1.97 1.97 0 0 0-1.457-.649m.01 26.283c-.792 0-1.59-.283-2.222-.858C.6 26.683.47 24.476.453 23.564c-.012-.7.01-3.049.792-3.91l5.002-5.145L1.261 9.38C.175 8.187.128 2.763 1.465 1.546a3.3 3.3 0 0 1 4.655.22l6.26 6.437 6.275-6.453c1.207-1.328 3.294-1.426 4.64-.204 1.337 1.218 1.29 6.641.22 7.818l-5.003 5.145 4.986 5.128c.8.877.821 3.227.81 3.927-.017.912-.148 3.12-1.014 3.907a3.28 3.28 0 0 1-2.373.854 3.27 3.27 0 0 1-2.282-1.074l-6.259-6.436-6.274 6.453a3.26 3.26 0 0 1-2.419 1.061"/><path fill="#4CE0AA" d="M16.167 12.691 23.15 5.51a2.618 2.618 0 1 0-3.873-3.524l-6.759 6.953-6.76-6.953A2.617 2.617 0 1 0 1.883 5.51l6.983 7.182-6.983 7.182a2.617 2.617 0 1 0 3.873 3.524l6.761-6.953 6.76 6.953a2.62 2.62 0 0 0 3.872-3.524z"/><path fill="#211256" d="m12.517 15.473 7.246 7.451a1.945 1.945 0 0 0 2.757.146 1.93 1.93 0 0 0 .633-1.343 1.94 1.94 0 0 0-.503-1.399l-7.428-7.637 7.443-7.655c.705-.774.647-2.003-.145-2.724a1.94 1.94 0 0 0-2.74.13l-7.263 7.467-7.245-7.452a1.95 1.95 0 0 0-2.757-.145 1.943 1.943 0 0 0-.13 2.742l7.428 7.637-7.443 7.655a1.92 1.92 0 0 0-.488 1.38 1.943 1.943 0 0 0 3.374 1.214zm-8.69 9.457a3.296 3.296 0 0 1-2.444-5.514l6.54-6.725L1.4 5.98a3.304 3.304 0 0 1 .204-4.671 3.3 3.3 0 0 1 4.655.22l6.26 6.436 6.274-6.452C20 .186 22.088.087 23.432 1.31a3.3 3.3 0 0 1 .22 4.656l-6.54 6.725 6.524 6.71a3.28 3.28 0 0 1 .87 2.39 3.27 3.27 0 0 1-1.074 2.282 3.3 3.3 0 0 1-4.655-.22l-6.26-6.437-6.273 6.453a3.26 3.26 0 0 1-2.418 1.061"/><g><mask id="b" fill="#fff"><use xlink:href="#a"/></mask><path fill="#211256" d="M3.817.905c-.709 0-1.383.26-1.91.739A2.81 2.81 0 0 0 1 4.032l.004.05-.006.052c-.246 1.973.039 4.329.597 4.943l5.237 5.385-5.124 5.27a2.82 2.82 0 0 0-.728 2.037l.002.036v.077c-.083.73-.082 1.414-.077 1.674.03 1.752.361 3.124.864 3.58a2.84 2.84 0 0 0 1.918.742c.797 0 1.557-.333 2.085-.913l6.608-6.797 6.583 6.769a2.84 2.84 0 0 0 1.98.938 2.83 2.83 0 0 0 2.048-.738c.503-.457.834-1.83.864-3.581.004-.167.004-.43-.008-.745l-.003-.09.032-.085a2.845 2.845 0 0 0-.574-2.931l-5.236-5.385 5.124-5.27c.397-.437.754-2.096.647-4.098l-.005-.095.035-.09a2.87 2.87 0 0 0-.738-3.123 2.83 2.83 0 0 0-2.048-.738 2.8 2.8 0 0 0-1.954.91l-6.61 6.798-6.582-6.77a2.84 2.84 0 0 0-2.118-.94m-.13 27.877a3.74 3.74 0 0 1-2.525-.976c-.96-.873-1.139-3.027-1.16-4.233a14 14 0 0 1 .078-1.748l-.002-.02a3.72 3.72 0 0 1 .971-2.691l4.523-4.651L.937 9.696C.09 8.765-.152 6.12.095 4.072A3.71 3.71 0 0 1 1.299.976a3.72 3.72 0 0 1 2.7-.97c1 .047 1.922.48 2.593 1.22l5.925 6.092 5.951-6.12A3.68 3.68 0 0 1 21.041.004a3.72 3.72 0 0 1 2.695.972 3.72 3.72 0 0 1 1.008 4.022c.082 1.76-.161 3.864-.896 4.67l-4.522 4.652 4.635 4.766a3.76 3.76 0 0 1 .997 2.726 3.8 3.8 0 0 1-.204 1.054c.008.297.007.544.004.706-.02 1.206-.199 3.36-1.159 4.234a3.73 3.73 0 0 1-2.697.97 3.72 3.72 0 0 1-2.597-1.22l-5.925-6.092-5.951 6.119a3.7 3.7 0 0 1-2.742 1.198" mask="url(#b)"/></g></g></svg>