<svg xmlns="http://www.w3.org/2000/svg" xmlns:xlink="http://www.w3.org/1999/xlink" width="27" height="35"><defs><path id="a" d="M0 .288h26.484V35H0z"/></defs><g fill="none" fill-rule="evenodd"><path fill="#6916A5" d="M25.039 14.008c0-.898-.571-1.675-1.39-1.888a1.7 1.7 0 0 0-.934.038l-1.237.397-.736-1.072a1.82 1.82 0 0 0-1.062-.736 1.93 1.93 0 0 0-1.012.027l-1.208.365-.727-1.03a1.82 1.82 0 0 0-1.705-.769l-1.925.18V3.226c0-.93-.585-1.722-1.422-1.925a1.92 1.92 0 0 0-1.748.455l-.161.15c-.64.491-1.573 1.538-2.191 2.231-.264.296-.478.533-.604.661a1.87 1.87 0 0 0-.554 1.33l-.007 10.064-.896.092c-.582.062-1.115.295-1.5.66.01 0-.026.042-.066.083l-.078.071c-.587.488-1.072 1.021-1.462 1.45-.212.232-.391.427-.533.562a2.61 2.61 0 0 0-.826 1.915c-.001.653.27 1.342.708 1.8l.113.132 7.81 10.504h12.866l2.487-2.549z"/><path fill="#4CE0AA" d="M23.757 12.449c-.872-.227-1.888.593-1.888 1.344v3.528a.45.45 0 1 1-.9 0v-1.25h-.009v-3.398c0-.728-.457-1.422-1.164-1.594a1.548 1.548 0 0 0-1.923 1.497l-.009 3.495h-.012v.116a.45.45 0 1 1-.9 0v-3.995c0-.012.006-.022.007-.035v-.848c0-.727-.457-1.422-1.164-1.593a1.548 1.548 0 0 0-1.923 1.497l-.01 3.495.006.012c-.048.198-.255.334-.467.334a.44.44 0 0 1-.429-.346h-.014v-.07c0-.011-.007-.021-.007-.034V9.246c0-.013.006-.024.007-.035V3.227c0-.728-.457-1.423-1.164-1.594A1.548 1.548 0 0 0 9.871 3.13l-.01 15.6c0 .43-.544.616-.809.278L7.71 17.285c-.903-.858-2.355-.951-3.259-.095a2.3 2.3 0 0 0-.005 3.34l6.761 9.426h13.687V14.008c0-.711-.449-1.38-1.137-1.56"/><g transform="translate(0 -.288)"><mask id="b" fill="#fff"><use xlink:href="#a"/></mask><path fill="#211256" d="m6.952 15.669.006-9.252c0-.49.762-1.404 1.573-2.1l-.009 11.97-1.042-.44a4 4 0 0 0-.529-.178zm4.255 14.574-6.76-9.426a2.29 2.29 0 0 1-.577-2.43.8.8 0 0 1 .201-.113c-.01-.046-.08-.03-.168.007.12-.294.3-.57.548-.803.904-.857 2.356-.764 3.26.094l1.342 1.723a.451.451 0 0 0 .807-.277l.011-15.551c0-.453.233-.844.233-.844a1.54 1.54 0 0 1 1.69-.703c.707.172 1.164.866 1.164 1.595v5.983c0 .012-.007.023-.007.035v5.359c0 .01.006.022.007.035v.068h.014a.444.444 0 0 0 .43.347c.211 0 .418-.137.466-.334l-.006-.013.01-3.494c0-.973.912-1.743 1.923-1.498.707.172 1.164.866 1.164 1.594v.847c0 .013-.007.024-.007.036v3.996a.45.45 0 0 0 .9 0v-.118h.012l.01-3.494c0-.972.911-1.743 1.922-1.498.707.172 1.164.866 1.164 1.594v3.398h.01v1.25a.45.45 0 1 0 .9 0V14.08c0-.751 1.015-1.57 1.887-1.344.688.179 1.137.848 1.137 1.559v15.948zm-1.14 3.166-7.76-10.426a2.3 2.3 0 0 1 .003-3.34c.11-.103-.295.377.127-.017.103.752.43 1.48.94 2.012l.066.082 7.077 9.863 13.801-.004-1.927 1.83zM24.16 11.198a3 3 0 0 0-1.63.057l-.353.113-.21-.306A3.07 3.07 0 0 0 20.17 9.82a3.2 3.2 0 0 0-1.667.045l-.345.105-.208-.295a3.07 3.07 0 0 0-2.853-1.29l-.547.05v-4.92c0-1.51-.978-2.8-2.379-3.14a3.16 3.16 0 0 0-2.963.828c-.734.562-1.715 1.662-2.364 2.39-.243.273-.439.493-.556.61a3.1 3.1 0 0 0-.918 2.214l-.007 8.943a3.8 3.8 0 0 0-2.006.964 1 1 0 0 0-.084.102c-.653.544-1.193 1.137-1.587 1.568-.187.205-.343.378-.468.496A3.85 3.85 0 0 0 0 21.314c0 .976.393 1.972 1.043 2.65L9.18 34.9l.075.1h13.79l3.44-2.913v-17.79c0-1.467-.955-2.74-2.324-3.098" mask="url(#b)"/></g></g></svg>