<svg xmlns="http://www.w3.org/2000/svg" xmlns:xlink="http://www.w3.org/1999/xlink" width="34" height="24"><defs><path id="a" d="M0 .485h33.766V20H0z"/></defs><g fill="none" fill-rule="evenodd"><path fill="#6916A5" d="M29.237 22.39a4 4 0 0 1-.383-.02l-9.308-1.085a3.4 3.4 0 0 1-2.277-1.27 3.4 3.4 0 0 1-.711-2.508 3.405 3.405 0 0 1 3.782-2.986l.396.046a8.6 8.6 0 0 0-5.074-1.633 8.66 8.66 0 0 0-7.993 5.299 3.403 3.403 0 0 1-4.461 1.809 3.37 3.37 0 0 1-1.83-1.857 3.38 3.38 0 0 1 .019-2.606 15.46 15.46 0 0 1 14.265-9.456c3.594 0 6.95 1.195 9.676 3.407l-.043-.821a3.38 3.38 0 0 1 .872-2.457 3.38 3.38 0 0 1 2.353-1.12c.057-.003.137-.006.216-.006 1.76 0 3.269 1.45 3.36 3.23l.542 10.454a3.4 3.4 0 0 1-1.072 2.66 3.4 3.4 0 0 1-2.33.92"/><path fill="#211256" d="M18.305 16.318a2.3 2.3 0 0 1 1.898-.681l2.498.29a.425.425 0 0 0 .352-.716c-1.435-1.486-6.646-5.974-13.454-1.34-1.199.816-2.148 2.075-2.983 3.96a2.284 2.284 0 0 1-3.08 1.127c-1.085-.523-1.556-1.9-1.049-3.07a14.36 14.36 0 0 1 13.174-8.64c3.848 0 7.456 1.507 10.163 4.242a.425.425 0 0 0 .478.094.41.41 0 0 0 .247-.406l-.11-2.143c-.045-.841.268-1.635.858-2.177.45-.414.907-.607 1.438-.607 1.172 0 2.175.97 2.237 2.165l.541 10.453a2.27 2.27 0 0 1-.718 1.78 2.3 2.3 0 0 1-1.822.602l-9.157-1.068c-1.199-.14-2.126-1.092-2.156-2.214a2.26 2.26 0 0 1 .645-1.651m14.914-8.02C33.097 5.928 31.085 4 28.735 4q-.16 0-.32.01a4.537 4.537 0 0 0-4.112 3.407c-2.572-1.583-5.556-2.42-8.642-2.42-6.689 0-12.696.98-15.3 7.142-.213.5-.33.026-.356.554-.03.646.078 5.297.328 5.914a4.5 4.5 0 0 0 2.435 2.47 4.521 4.521 0 0 0 5.936-2.408 7.54 7.54 0 0 1 6.957-4.611 7.7 7.7 0 0 1 1.621.172c-.912.66-1.539-1.376-1.772-.281-.029.14-.053 3.283-.07 3.428a4.5 4.5 0 0 0 .947 3.335 4.5 4.5 0 0 0 3.028 1.689l9.297 1.084a4.509 4.509 0 0 0 3.622-1.195 4.51 4.51 0 0 0 1.426-3.54z"/><path fill="#4CE0AA" d="M29.237 18.39a4 4 0 0 1-.383-.02l-9.308-1.085a3.4 3.4 0 0 1-2.277-1.27 3.4 3.4 0 0 1-.711-2.508 3.405 3.405 0 0 1 3.782-2.986l.396.046a8.6 8.6 0 0 0-5.074-1.633 8.66 8.66 0 0 0-7.993 5.299 3.403 3.403 0 0 1-4.461 1.809 3.37 3.37 0 0 1-1.83-1.857 3.38 3.38 0 0 1 .019-2.606 15.46 15.46 0 0 1 14.265-9.456c3.594 0 6.95 1.195 9.676 3.407l-.043-.821a3.38 3.38 0 0 1 .872-2.457 3.38 3.38 0 0 1 2.353-1.12c.057-.003.137-.006.216-.006 1.76 0 3.269 1.45 3.36 3.23l.542 10.454a3.4 3.4 0 0 1-1.072 2.66 3.4 3.4 0 0 1-2.33.92"/><g transform="translate(0 -.484)"><mask id="b" fill="#fff"><use xlink:href="#a"/></mask><path fill="#211256" d="M18.305 12.802a2.3 2.3 0 0 1 1.898-.681l2.498.291a.425.425 0 0 0 .352-.717c-1.435-1.486-6.646-5.974-13.454-1.34-1.199.816-2.148 2.075-2.983 3.961a2.284 2.284 0 0 1-3.08 1.126c-1.085-.523-1.556-1.899-1.049-3.07a14.36 14.36 0 0 1 13.174-8.639c3.848 0 7.456 1.506 10.163 4.241a.425.425 0 0 0 .478.094.41.41 0 0 0 .247-.406l-.11-2.143c-.045-.841.268-1.635.858-2.177.45-.414.907-.607 1.438-.607 1.172 0 2.175.97 2.237 2.165l.541 10.453a2.27 2.27 0 0 1-.718 1.781 2.3 2.3 0 0 1-1.822.601l-9.157-1.068c-1.199-.139-2.126-1.092-2.156-2.214a2.26 2.26 0 0 1 .645-1.651m14.914-8.02c-.122-2.37-2.134-4.297-4.484-4.297q-.16 0-.32.011a4.537 4.537 0 0 0-4.112 3.407c-2.572-1.584-5.556-2.42-8.642-2.42a16.58 16.58 0 0 0-15.3 10.141 4.5 4.5 0 0 0-.028 3.468 4.5 4.5 0 0 0 2.435 2.47 4.521 4.521 0 0 0 5.936-2.408 7.54 7.54 0 0 1 6.957-4.611 7.7 7.7 0 0 1 1.621.172 4.5 4.5 0 0 0-1.842 3.147 4.5 4.5 0 0 0 .947 3.335 4.5 4.5 0 0 0 3.028 1.689l9.297 1.084a4.509 4.509 0 0 0 3.622-1.195 4.51 4.51 0 0 0 1.426-3.539z" mask="url(#b)"/></g></g></svg>