<svg xmlns="http://www.w3.org/2000/svg" xmlns:xlink="http://www.w3.org/1999/xlink" width="29" height="41"><defs><path id="a" d="M0 .923h29.014V42H.001z"/></defs><g fill="none" fill-rule="evenodd"><path fill="#4CE0AA" d="M4.831 23.182 16.995 3.524s5.973-.852 9.491 5.937L13.463 28.914 3.146 35.96z"/><path fill="#D7FFFF" d="M12.81 25.138c-.884-1.164-2.045-2.16-3.417-2.693-1.151-.447-3.253-.545-4.456-.407l-.106 1.144L1.186 39.88l13.258-10.967.027-.04c-.416-.98-1.022-2.893-1.661-3.736"/><path fill="#6916A5" d="m22.864 15.233 4.603-7.238C25.43.03 16.976 2.055 16.976 2.055L13.119 8.58c3.876.194 8.06 3.112 9.745 6.654"/><g transform="translate(0 -.923)"><mask id="b" fill="#fff"><use xlink:href="#a"/></mask><path fill="#211256" d="M20.112.923c-2.771 0-4.555 1.522-4.75 1.696l-.246.22-.18.278-12.163 19.66-.3.461-.071.546L0 42 14.846 31.86l.383-.26.26-.385 13.024-19.452.286-.42.095-.498c.688-3.6-1.684-6.934-4.18-8.506-1.49-.939-3.04-1.416-4.602-1.416m0 2.45c.944 0 2.063.261 3.296 1.04 1.89 1.192 3.522 3.65 3.079 5.971L13.464 29.837 2.959 37.375l1.873-13.27L16.996 4.446s1.2-1.073 3.116-1.073" mask="url(#b)"/></g><path fill="#211256" d="M15.183 29.359h-1.855c0-2.336-1.926-3.834-3.374-4.757-2.942-1.875-5.536-1.399-5.645-1.378l-.37-1.819c.138-.027 3.406-.666 7.01 1.633 1.048.668 4.234 2.697 4.234 6.32M22.615 15.921c-3.085-5.753-7.598-6.088-9.296-6.214-.585-.044-.971-.072-1.265-.437l-.205-.738 1.838.256c.072-.513-.312-.91-.62-.967.084.016.217.022.39.035 1.787.133 7.226.537 10.793 7.188zM2.002 32.736s3.66-.589 4.345 2.721L.98 39.065z"/></g></svg>