<svg xmlns="http://www.w3.org/2000/svg" xmlns:xlink="http://www.w3.org/1999/xlink" width="33" height="37"><defs><path id="a" d="M0 .048h31.958V32H0z"/><path id="c" d="M.18.905h27.838v19.94H.18z"/></defs><g fill="none" fill-rule="evenodd"><path fill="#6916A5" d="M15.448 36C7.454 35.972.974 29.22 1 20.95c.001-.144.014-3.322.019-3.464C1.255 10.153 6.549 5.969 15.546 6c8.9.03 14.302 4.391 14.454 11.662.002.117-.007 3.27-.008 3.389C29.966 29.32 23.44 36.027 15.448 36"/><g transform="translate(0 5)"><mask id="b" fill="#fff"><use xlink:href="#a"/></mask><path fill="#211256" d="M16.03.048C6.267.016.281 4.672.02 12.502.012 12.698 0 15.939 0 15.97-.03 24.779 7.114 31.969 15.922 32c8.809.029 16-7.113 16.03-15.922 0-.033.01-3.22.006-3.385C31.788 4.81 25.835.081 16.03.048m-.008 2.236c7.472.026 13.54 3.029 13.7 10.458.003.115-.006 3.212-.007 3.329-.024 7.589-6.198 13.719-13.785 13.694-7.589-.026-13.72-6.2-13.694-13.787.001-.142.014-3.263.018-3.403C2.5 5.183 8.574 2.26 16.022 2.285" mask="url(#b)"/></g><path fill="#4CE0AA" d="M15.451 31C7.455 30.972.973 24.22 1 15.95 1.026 7.677 7.553.971 15.549 1S30.029 7.78 30 16.05c-.026 8.272-6.554 14.977-14.549 14.95"/><path fill="#211256" d="M16.054 0C7.233-.03.031 7.124 0 15.945S7.125 31.97 15.946 32 31.969 24.875 32 16.053C32.03 7.23 24.875.03 16.054 0m-.008 2.24c7.6.024 13.74 6.207 13.714 13.806-.025 7.6-6.208 13.74-13.806 13.714-7.6-.025-13.74-6.208-13.714-13.807S8.448 2.213 16.046 2.24"/><path fill="#FFF" d="M16.124 24a3.9 3.9 0 0 1-3.03-1.466l-5.176-6.382c-1.399-1.726-1.173-4.306.502-5.748a3.9 3.9 0 0 1 2.553-.948 3.9 3.9 0 0 1 3.03 1.466l2.683 3.31 8.868-7.333A3.9 3.9 0 0 1 28.047 6a3.91 3.91 0 0 1 3.08 1.527c.661.848.965 1.914.849 2.999a4.09 4.09 0 0 1-1.459 2.738l-11.9 9.838a3.9 3.9 0 0 1-2.493.898"/><g transform="translate(5 4)"><mask id="d" fill="#fff"><use xlink:href="#c"/></mask><path fill="#211256" d="M22.61.905a5.5 5.5 0 0 0-3.414 1.171l-7.69 6.048-1.74-2.042A5.46 5.46 0 0 0 5.62 4.175 5.5 5.5 0 0 0 2.128 5.41 5.25 5.25 0 0 0 .202 9.013a5.2 5.2 0 0 0 1.238 3.882l5.15 6.042a5.46 5.46 0 0 0 4.146 1.908 5.5 5.5 0 0 0 3.413-1.17l11.84-9.312a5.25 5.25 0 0 0 1.997-3.565 5.2 5.2 0 0 0-1.164-3.908A5.44 5.44 0 0 0 22.609.905m-.01 2.902a2.48 2.48 0 0 1 1.914.902 2.38 2.38 0 0 1-.378 3.39l-11.841 9.312a2.5 2.5 0 0 1-1.548.533 2.47 2.47 0 0 1-1.883-.867l-5.15-6.042a2.377 2.377 0 0 1 .313-3.397 2.5 2.5 0 0 1 1.585-.561 2.48 2.48 0 0 1 1.883.866l3.6 4.225 9.958-7.831a2.47 2.47 0 0 1 1.547-.53" mask="url(#d)"/></g></g></svg>