<svg xmlns="http://www.w3.org/2000/svg" xmlns:xlink="http://www.w3.org/1999/xlink" width="29" height="34"><defs><path id="a" d="M0 .398H28.99V30H0z"/></defs><g fill="none" fill-rule="evenodd"><g transform="translate(0 3.297)"><mask id="b" fill="#fff"><use xlink:href="#a"/></mask><path fill="#211256" d="M23.335 18.835a5.74 5.74 0 0 0-3.72 1.385l-8.355-4.156a5.4 5.4 0 0 0-.003-1.48l8.509-4.232a5.68 5.68 0 0 0 3.569 1.25c3.118 0 5.654-2.503 5.654-5.58 0-.107-.003-3.086-.008-3.192C28.813-.102 26.344.437 23.335.437c-2.911 0-5.366 2.246-5.631 5.075L8.09 10.295a5.7 5.7 0 0 0-2.436-.547c-3.008 0-5.476.034-5.645 2.964-.007.107-.01 2.513-.01 2.621 0 3.08 2.537 5.586 5.655 5.586.85 0 1.694-.192 2.456-.558l9.619 4.788C18.097 27.895 20.497 30 23.335 30c3.118 0 5.654-2.506 5.654-5.586 0-.092-.002-3.058-.007-3.148-.146-2.95-2.623-2.43-5.647-2.43" mask="url(#b)"/></g><path fill="#6916A5" d="M23.335 23.567a4.26 4.26 0 0 0-3.407 1.708L9.585 20.13a4 4 0 0 0 .289-1.5q-.001-.781-.296-1.516l10.464-5.205a4.24 4.24 0 0 0 3.293 1.555c2.327 0 4.219-1.86 4.219-4.144 0-2.29-1.892-4.15-4.22-4.15-2.325 0-4.218 1.86-4.218 4.15q0 .188.02.38L8.046 15.217a4.2 4.2 0 0 0-2.39-.737c-2.327 0-4.22 1.862-4.22 4.15 0 2.29 1.893 4.15 4.22 4.15a4.2 4.2 0 0 0 2.409-.748l11.057 5.504q-.006.09-.005.176c0 2.289 1.893 4.15 4.219 4.15s4.219-1.861 4.219-4.15c0-2.286-1.892-4.145-4.22-4.145"/><path fill="#211256" d="M23.335 18.399c-1.36 0-2.692.5-3.72 1.385l-8.355-4.156a5.4 5.4 0 0 0-.003-1.48l8.509-4.233a5.67 5.67 0 0 0 3.569 1.25c3.118 0 5.654-2.502 5.654-5.58 0-3.08-2.536-5.584-5.654-5.584-2.911 0-5.366 2.246-5.631 5.075L8.09 9.859a5.7 5.7 0 0 0-2.436-.547C2.537 9.312 0 11.817 0 14.897s2.536 5.585 5.654 5.585c.85 0 1.694-.191 2.456-.557l9.619 4.788c.367 2.746 2.767 4.85 5.605 4.85 3.118 0 5.654-2.505 5.654-5.585 0-3.076-2.536-5.58-5.654-5.58"/><path fill="#4CE0AA" d="M23.335 19.833a4.26 4.26 0 0 0-3.407 1.708L9.585 16.396a4.048 4.048 0 0 0-.007-3.016l10.464-5.205a4.24 4.24 0 0 0 3.293 1.554c2.327 0 4.219-1.858 4.219-4.144 0-2.288-1.892-4.149-4.22-4.149-2.325 0-4.218 1.861-4.218 4.15q0 .188.02.38L8.046 11.483a4.2 4.2 0 0 0-2.39-.737c-2.327 0-4.22 1.861-4.22 4.15s1.893 4.151 4.22 4.151a4.2 4.2 0 0 0 2.409-.749l11.057 5.504q-.006.091-.005.176c0 2.29 1.893 4.15 4.219 4.15s4.219-1.86 4.219-4.15c0-2.286-1.892-4.145-4.22-4.145"/></g></svg>