<svg xmlns="http://www.w3.org/2000/svg" width="37" height="42"><g fill="none" fill-rule="evenodd"><path fill="#6916A5" d="m32.983 28.808-6.204 6.122h-9.762l-5.322 5.25v-5.25h-7.8V9.57h29.088z"/><path fill="#211256" d="m32.983 27.903-6.204 6.122h-9.762l-5.322 5.251v-5.251h-7.8V8.666h29.088zM.459 5.156v32.383h7.97v4.38h5.198l4.439-4.38h10.528l7.946-7.894V5.156z"/><path fill="#211256" d="M.459 5.157v32.382h7.97v4.38h5.198l4.439-4.38h10.529l7.945-7.895V5.158zm3.437 3.508h29.087v19.239l-6.204 6.12h-9.762l-5.322 5.252v-5.251h-7.8z"/><path fill="#4CE0AA" d="m32.983 21.662-6.204 6.122h-9.762l-5.322 5.251v-5.25h-7.8V3.44h29.088z"/><path fill="#211256" d="m32.983 21.773-6.204 6.122h-9.762l-5.322 5.252v-5.252h-7.8V3.55h29.088zM.459.042v31.367h7.97v4.38h5.198l4.439-4.38h10.528l7.946-7.894V.042z"/><path fill="#211256" d="M.459.042v31.367h7.97v4.38h5.198l4.439-4.38h10.529l7.945-7.894V.042zM3.896 3.55h29.087v18.22l-6.204 6.124h-9.762l-5.322 5.252v-5.252h-7.8z"/><path fill="#211256" d="M13.564 20.466h3.701V9.708h-3.701zm10.131 0h3.701V9.708h-3.701z"/><path fill="#211256" d="M23.695 20.466h3.701V9.707h-3.701zm-10.131 0h3.702V9.707h-3.702z"/></g></svg>