<svg xmlns="http://www.w3.org/2000/svg" xmlns:xlink="http://www.w3.org/1999/xlink" width="27" height="29"><defs><path id="a" d="M0 .187h26.816V20H0z"/></defs><g fill="none" fill-rule="evenodd"><path fill="#6916A5" d="M24 22.545C24 23.47 19.076 26 13 26c-6.074 0-11-3.059-11-3.455C2 16.72 6.926 12 13 12c6.076 0 11 4.721 11 10.545"/><path fill="#4CE0AA" d="M25 20.034C25 20.96 19.56 24 13.5 24S2 20.431 2 20.034C2 14.204 7.44 11 13.5 11S25 14.205 25 20.034"/><path fill="#211256" d="M2.547 19.85c.877.769 5.412 3.579 10.453 3.579 5.366 0 9.883-2.615 10.456-3.428-.073-5.79-5.454-8.43-10.456-8.43-4.959 0-10.29 2.593-10.453 8.278M13 25c-5.595 0-12-3.465-12-4.881C1 15.245 4.755 10 13 10s12 5.245 12 10.119C25 21.869 18.952 25 13 25"/><g transform="translate(0 9)"><mask id="b" fill="#fff"><use xlink:href="#a"/></mask><path fill="#211256" d="M13.408.187C6.015.187 0 6.283 0 13.777c0 1.62 1.33 2.485 2.043 2.95.53.344 1.427.87 2.7 1.42C6.699 18.994 9.787 20 13.409 20c3.937 0 7.074-1.013 8.593-1.617 4.815-1.913 4.815-3.94 4.815-4.605C26.816 6.283 20.8.187 13.408.187m0 2.631c5.971 0 10.811 4.907 10.811 10.96 0 .96-4.84 3.59-10.811 3.59S2.596 14.19 2.596 13.779c0-6.053 4.84-10.96 10.812-10.96" mask="url(#b)"/></g><path fill="#4CE0AA" d="M20 8A7 7 0 1 1 6 8a7 7 0 0 1 14 0"/><path fill="#211256" d="M13.5 2.652A5.855 5.855 0 0 0 7.652 8.5a5.855 5.855 0 0 0 5.848 5.848A5.855 5.855 0 0 0 19.348 8.5 5.855 5.855 0 0 0 13.5 2.652M13.5 17C8.813 17 5 13.187 5 8.5S8.813 0 13.5 0 22 3.813 22 8.5 18.187 17 13.5 17"/></g></svg>