<?xml version="1.0" standalone="no"?>
<!DOCTYPE svg PUBLIC "-//W3C//DTD SVG 1.1//EN" "http://www.w3.org/Graphics/SVG/1.1/DTD/svg11.dtd" >
<svg xmlns="http://www.w3.org/2000/svg">
<metadata>Generated by IcoMoon</metadata>
<defs>
<font id="icomoon" horiz-adv-x="1024">
<font-face units-per-em="1024" ascent="960" descent="-64" />
<missing-glyph horiz-adv-x="1024" />
<glyph unicode="&#x20;" horiz-adv-x="512" d="" />
<glyph unicode="&#xe900;" glyph-name="Avancar" horiz-adv-x="1100" d="M1096.549 750.924c-9.18 31.271-33.686 54.232-65.533 61.651l-619.028 127.986c-32.519 7.511-66.742-3.483-89.21-28.678-22.516-25.139-29.445-60.256-18.132-91.595l65.365-179.516-144.194-60.468c-182.385-76.461-271.57-281.777-203.057-467.436l38.433-104.275c16.475-44.68 65.75-66.898 110.024-49.611l86.483 33.675c44.273 17.287 66.821 67.486 50.347 112.166l-38.45 104.318c-18.273 49.52 5.525 104.301 54.229 124.668l136.994 57.461 71.258-195.606c10.662-29.705 35.594-50.998 66.77-57.1 31.067-6.022 62.697 4.251 84.626 27.499l391.571 496.577c22.67 24.031 30.684 57.014 21.504 88.284z" />
<glyph unicode="&#xe901;" glyph-name="Voltar" horiz-adv-x="1100" d="M3.451 750.924c9.18 31.271 33.686 54.232 65.533 61.651l619.028 127.986c32.519 7.511 66.742-3.483 89.21-28.678 22.516-25.139 29.445-60.256 18.132-91.595l-65.365-179.516 144.194-60.468c182.385-76.461 271.57-281.777 203.057-467.436l-38.433-104.275c-16.475-44.68-65.75-66.898-110.024-49.611l-86.483 33.675c-44.273 17.287-66.821 67.486-50.347 112.166l38.45 104.318c18.273 49.52-5.525 104.301-54.229 124.668l-136.994 57.461-71.258-195.606c-10.662-29.705-35.594-50.998-66.77-57.1-31.067-6.022-62.697 4.251-84.626 27.499l-391.571 496.577c-22.67 24.031-30.684 57.014-21.504 88.284z" />
<glyph unicode="&#xe902;" glyph-name="Linha" horiz-adv-x="672" d="M451.511 914.498c-66.142-36.663-89.080-121.488-51.401-189.463 4.966-8.958 10.816-17.077 17.253-24.521l-224.705-463.544c-35.118 11.835-74.266 9.9-108.692-9.182-66.096-36.638-89.081-121.486-51.401-189.463s121.817-93.45 187.913-56.812c66.054 36.615 89.077 121.487 51.397 189.464-4.694 8.469-10.15 16.283-16.128 23.407l224.99 464.049c34.714-11.307 73.355-9.075 107.309 9.746 66.055 36.615 89.077 121.487 51.397 189.464-37.679 67.975-121.838 93.493-187.934 56.856z" />
<glyph unicode="&#xe903;" glyph-name="Borracha" horiz-adv-x="928" d="M555.464 43.592v144.726l298.296 275.313v-144.726l-298.296-275.313zM74.24 517.731l140.054-113.552c0-0.471-0.297-0.842-0.297-1.347v-150.584l-139.757 113.317v152.166zM402.826 880.303l163.699-131.866-314.258-285.076-160.804 129.611 311.363 287.331zM901.756 581.762l-476.992 370.148c-14.774 11.48-36.897 10.672-50.595-1.986l-363.516-335.473c-7.164-6.598-10.95-15.587-10.579-24.811 0-0.135-0.074-0.236-0.074-0.37v-239.19c0-9.83 4.751-19.189 12.992-25.585l490.281-380.415c6.941-5.42 15.553-8.080 24.128-8.080 9.614 0 19.228 3.367 26.467 10.066l363.516 335.473c6.793 6.295 10.616 14.745 10.616 23.599v244.947c0 15.116-11.173 27.403-26.244 31.679v0z" />
<glyph unicode="&#xe904;" glyph-name="Balde" d="M516.011 29.693c-17.93-21.235-50.084-24.215-71.721-6.557v0l-349.149 285.663c-21.637 17.696-24.588 49.362-6.658 70.634l165.269 195.919c13.921-0.894 28.144-1.453 42.48-1.453 106.106 0 217.471 22.725 236.763 26.86 15.509 3.278 25.382 18.403 22.053 33.678-3.367 15.311-18.46 25.109-34.272 21.719-59.995-12.741-145.636-24.513-220.157-25.221l187.701 222.555 427.528-349.778-399.838-474.020zM159.713 657.571c-9.684 7.674-13.996 16.392-14.034 28.313-0.076 33.454 84.923 72.459 184.485 98.462l-123.129-145.998c-19.859 4.284-36.277 10.506-47.322 19.223v0zM478.297 959.999l-87.722-104.050c-78.379-14.492-302.81-65.232-302.507-170.213 0.076-28.984 12.407-53.981 35.558-72.347 11.878-9.425 26.82-16.615 43.502-22.352l-137.692-163.247c-45.015-53.348-37.563-132.81 16.606-177.143l349.187-285.663c23.794-19.484 52.732-28.984 81.481-28.984 36.693 0 73.159 15.46 98.39 45.375l448.9 532.173-545.701 446.452zM211.567 447.999l-75.654-76.199c-12.113-12.62-10.094-31.289 4.492-41.733l313.165-259.243c14.586-10.444 36.237-8.704 48.35 3.873l234.079 273.691-524.431 99.612z" />
<glyph unicode="&#xe905;" glyph-name="Lapis" horiz-adv-x="661" d="M392.969 955.525c-35.748-6.182-67.313-29.734-84.379-63.223v0l-265.654-518.144c-3.964-7.737-6.056-16.346-6.056-24.917v0l-36.703-360.41c0-19.266 10.13-36.94 26.426-46.232v0c7.561-4.324 16.076-6.599 24.664-6.599v0c9.653 0 19.122 2.807 27.27 8.154v0l298.173 227.859c7.854 5.158 14.241 12.402 18.425 21.011v0l250.092 498.385c20.59 42.363 20.774 92.691 0.661 134.675v0c-23.93 50.024-82.177 133.916-203.039 133.916v0c-16.002 0-32.739-1.517-49.879-4.475v0zM503.302 938.273c2.246-0.312 4.536-0.623 6.739-1.069v0c-2.202 0.445-4.492 0.757-6.739 1.069v0zM503.699 894.33c1.982-0.712 3.964-1.469 5.946-2.226v0c-1.982 0.757-3.964 1.514-5.946 2.226v0zM44.22 69.925l20.516 213.927c-0.126 3.83 2.304 7.242 5.681 7.695v0c23.136 2.994 85.883-4.526 124.894-26.95v0c36.708-21.065 58.896-64.519 68.207-89.589v0c2.304-6.267 0.126-13.231-5.019-16.817v0l-154.343-133.147c-4.545 27.611-36.013 44.255-59.938 44.881v0z" />
<glyph unicode="&#xe906;" glyph-name="Close" horiz-adv-x="1103" d="M692.042 458.271l375.016 322.035c21.654 18.578 34.289 43.951 35.702 71.524 1.372 27.573-8.645 53.967-28.304 74.352-40.482 42.145-109.724 45.365-154.362 7.031l-378.798-325.334-322.647 320.111c-41.562 41.241-110.846 42.812-154.487 3.574-21.155-19.089-33.167-44.737-33.915-72.31-0.707-27.573 9.975-53.731 30.133-73.724l319.073-316.615-343.512-295.012c-21.654-18.578-34.247-43.951-35.702-71.524-1.372-27.573 8.645-53.967 28.304-74.352 19.617-20.424 46.467-32.365 75.602-33.739 1.787-0.039 3.574-0.079 5.362-0.079 27.223 0 53.117 9.427 73.399 26.826l347.335 298.312 354.11-351.336c21.446-21.288 50.249-32.011 79.134-32.011 27.099 0 54.239 9.427 75.352 28.437 21.155 19.050 33.167 44.698 33.873 72.31 0.748 27.573-9.975 53.731-30.091 73.724l-350.577 347.801z" />
<glyph unicode="&#xe907;" glyph-name="ic_change" horiz-adv-x="910" d="M909.656 517.898c-10.514 243.735-207.219 437.9-447.819 442.036-115.426 1.963-225.966-39.805-311.689-117.519-85.046-77.117-138.286-182.751-149.903-297.44-1.987-19.671 4.392-39.417 17.518-54.176 13.295-14.938 32.278-23.501 52.099-23.501 35.853 0 65.747 27.383 69.522 63.701 8.564 82.633 48.016 157.831 111.092 211.753 63.834 54.564 145.047 80.961 228.659 74.414 153.869-12.116 278.646-139.019 290.249-295.193 6.71-90.375-22.948-176.637-83.523-242.906-21.528-23.553-46.419-43.62-74.106-59.782l-46.014 76.833c-11.191 18.678-31.498 29.495-53.026 28.353-21.514-1.194-40.54-14.244-49.656-34.049l-117.684-255.769c-8.226-17.872-7.152-38.64 2.869-55.542 10.028-16.901 27.591-27.592 47.008-28.592l279.507-14.445c1.008-0.045 2.009-0.075 3.002-0.075 20.491 0 39.466 10.862 50.046 28.853 11.095 18.872 11 42.269-0.243 61.051l-42.931 71.682c35.67 21.299 68.425 47.539 97.561 78.162 87.732 92.241 133.003 213.754 127.463 342.15z" />
<glyph unicode="&#xe908;" glyph-name="load" horiz-adv-x="1081" d="M811.199 937.922l-87.522-145.116c111.475-63.439 186.936-182.496 186.936-319.142 0-203.078-166.048-368.267-370.153-368.267s-370.182 165.19-370.182 368.267c0 144.269 83.861 269.312 205.609 329.673l-64.904 156.663c-183.502-86.025-310.982-271.514-310.982-486.336 0-296.472 242.446-537.664 540.459-537.664 297.984 0 540.43 241.192 540.43 537.664 0 198.194-108.722 371.119-269.69 464.259z" />
<glyph unicode="&#xe909;" glyph-name="quadrado_preenchido" horiz-adv-x="1051" d="M950.398-41.739h-849.797c-35.828 0-64.841 29.013-64.841 64.841v849.797c0 35.828 29.013 64.841 64.841 64.841h849.797c35.776 0 64.841-29.013 64.841-64.841v-849.797c0-35.828-29.065-64.841-64.841-64.841z" />
<glyph unicode="&#xe90a;" glyph-name="quadrado_borda" horiz-adv-x="1051" d="M123.647 862.351c-6.884 0-12.499-5.615-12.499-12.499v-803.703c0-6.884 5.615-12.499 12.499-12.499h803.703c6.933 0 12.499 5.615 12.499 12.499v803.703c0 6.884-5.566 12.499-12.499 12.499h-803.703zM927.351-64h-803.703c-60.738 0-110.148 49.411-110.148 110.148v803.703c0 60.738 49.411 110.148 110.148 110.148h803.703c60.738 0 110.148-49.411 110.148-110.148v-803.703c0-60.738-49.411-110.148-110.148-110.148v0z" />
<glyph unicode="&#xe90b;" glyph-name="circulo_preenchido-01" d="M1000 448c0-269.516-218.484-488-488-488s-488 218.484-488 488c0 269.516 218.484 488 488 488s488-218.484 488-488z" />
<glyph unicode="&#xe90c;" glyph-name="circulo_borda" d="M512 960c-270.786 0-488.727-230.049-488.727-512s217.942-512 488.727-512c270.786 0 488.727 230.049 488.727 512s-217.942 512-488.727 512zM512 820.364c191.928 0 349.091-165.894 349.091-372.364s-157.163-372.364-349.091-372.364c-191.928 0-349.091 165.894-349.091 372.364s157.163 372.364 349.091 372.364z" />
<glyph unicode="&#xe90d;" glyph-name="sair" horiz-adv-x="1097" d="M715.572 447.996l345.516 318.465c22.291 20.536 35.046 48.307 35.933 78.222 0.902 29.899-10.189 58.37-31.189 80.137-21.015 21.767-49.451 34.231-80.048 35.113-30.8 1.034-59.748-9.956-82.008-30.492l-355.269-327.463-355.285 327.463c-22.275 20.536-51.442 31.511-82.008 30.492-30.597-0.882-59.017-13.346-80.048-35.113-21-21.767-32.075-50.238-31.189-80.137 0.902-29.914 13.658-57.686 35.933-78.206l345.531-318.48-345.531-318.48c-45.982-42.379-48.113-113.426-4.729-158.358 43.384-44.902 116.074-46.985 162.040-4.621l355.285 327.463 355.269-327.463c21.435-19.776 49.217-30.538 78.57-30.538 1.136 0 2.287 0.015 3.438 0.046 30.597 0.882 59.033 13.346 80.048 35.113 21 21.767 32.091 50.238 31.189 80.137-0.887 29.914-13.642 57.686-35.933 78.222l-345.516 318.48z" />
<glyph unicode="&#xe90e;" glyph-name="voltar" horiz-adv-x="853" d="M824.722 845.24v-794.482c0-71.414-77.977-111.817-131.944-68.385l-632.336 390.717c-42.495 34.181-42.96 101.215-0.932 136.025l632.336 403.765c53.812 44.573 132.876 4.334 132.876-67.64z" />
<glyph unicode="&#xe90f;" glyph-name="ausente" horiz-adv-x="1132" d="M678.47 481.342h-403.691v92.888c0 13.036-15.732 20.251-26.369 12.126l-231.782-175.528c-8.216-6.184-8.216-18.008-0.064-24.192l231.782-176.559c10.637-8.064 26.433-0.849 26.433 12.126v89.553h403.691c8.981 0 16.242 6.912 16.242 15.461v138.664c0 8.549-7.261 15.461-16.242 15.461zM762.135 932.46v-90.752h-316.021c-8.929 0-16.097-7.36-16.097-16.384v-275.2h84.758v205.248h247.359v-721.92h-247.359v196.992h-84.758v-266.944c0-8.96 7.168-16.32 16.097-16.32h659.33c8.929 0 16.097 7.36 16.097 16.32v866.112c0 7.168-4.59 13.504-11.318 15.616l-327.276 102.848c-10.375 3.264-20.812-4.608-20.812-15.616z" />
<glyph unicode="&#xe910;" glyph-name="check" horiz-adv-x="1412" d="M1079.782 903.718l-485.317-491.135-250.914 303.084c-67.419 81.371-187.372 91.874-267.55 24.044-80.678-68.21-91.185-189.57-23.891-270.941l384.126-464.054c34.272-41.381 84.18-66.311 137.34-68.589 3.002-0.127 5.754-0.127 8.506-0.127 50.283 0 98.564 20.121 134.338 56.314l632.038 639.577c74.299 74.917 74.299 196.657 0 271.826-74.173 75.043-194.377 75.043-268.676 0z" />
<glyph unicode="&#xe911;" glyph-name="coroa" horiz-adv-x="1297" d="M1192.24 762.485c-57.828 0-104.717-46.425-104.717-103.68 0-27.264 10.785-51.802 28.072-70.281l-215.477-169.038c-13.157-10.376-31.973-6.665-40.693 7.952l-161.168 335.502c35.416 16.661 59.969 52.029 59.969 93.38 0 57.255-46.889 103.68-104.717 103.68-57.904 0-104.793-46.425-104.793-103.68 0-33.777 16.599-63.541 41.841-82.474l-165.451-344.59c-9.026-15.298-28.99-18.555-42.070-6.816l-194.977 174.113c13.31 17.343 21.418 38.7 21.418 62.253 0 57.255-46.889 103.68-104.793 103.68-57.828 0-104.717-46.425-104.717-103.68 0-57.331 46.889-103.756 104.717-103.756 8.261 0 16.063 1.060 23.712 2.878l75.88-621.928h874.91l110.148 619.353c1.071 0 1.912-0.303 2.907-0.303 57.904 0 104.793 46.425 104.793 103.756 0 57.255-46.889 103.68-104.793 103.68z" />
<glyph unicode="&#xe912;" glyph-name="info" d="M512 23.194c-234.24 0-424.811 190.571-424.811 424.811s190.571 424.8 424.811 424.8c234.24 0 424.811-190.56 424.811-424.8s-190.571-424.811-424.811-424.811zM512 958.138c-281.301 0-510.144-228.843-510.144-510.133s228.843-510.144 510.144-510.144c281.301 0 510.144 228.853 510.144 510.144s-228.843 510.133-510.144 510.133zM504.547 533.645c-30.803 0-55.855-26.596-55.855-59.273v-253.818c0-32.677 25.052-59.273 55.855-59.273s55.855 26.596 55.855 59.273v253.818c0 32.677-25.052 59.273-55.855 59.273zM513.861 589.499c35.928 0 65.158 29.23 65.158 65.158s-29.23 65.169-65.158 65.169c-35.928 0-65.169-29.241-65.169-65.169s29.241-65.158 65.169-65.158z" />
<glyph unicode="&#xe913;" glyph-name="Group-7" horiz-adv-x="1061" d="M749.928 6.737c-124.92 0-226.526 102.644-226.526 228.808 0 58.844 22.693 112.008 58.974 152.568 48.405-31.108 105.825-49.392 167.552-49.392s119.147 18.283 167.552 49.392c36.281-40.561 58.974-93.724 58.974-152.568 0-126.164-101.606-228.808-226.526-228.808zM1060.785 649.361c0 171.295-139.442 310.639-310.857 310.639s-310.857-139.344-310.857-310.639c0-83.473 33.306-159.269 87.129-215.14-47.117-52.942-76.027-122.392-76.027-198.676 0-165.171 134.468-299.545 299.755-299.545s299.755 134.374 299.755 299.545c0 76.284-28.91 145.734-76.027 198.676 53.823 55.871 87.129 131.667 87.129 215.14zM288.042 230.739h-77.746v434.522h77.746c15.067 0 28.95 7.99 36.233 20.907 7.238 12.917 6.691 28.631-1.366 41.015l-127.817 195.843c-7.784 11.896-19.846 18.643-35.55 18.688-14.475-0.266-27.539-7.635-34.913-19.797l-118.668-195.888c-7.556-12.429-7.647-27.921-0.319-40.483 7.374-12.518 21.121-20.286 35.869-20.286h77.746v-434.522h-77.701c-15.112 0-28.996-8.034-36.233-20.907-7.283-12.917-6.737-28.631 1.366-41.060l127.772-195.843c7.784-11.896 19.846-18.599 35.596-18.643 14.475 0.222 27.539 7.635 34.868 19.797l118.714 195.843c7.511 12.473 7.647 27.965 0.273 40.483-7.329 12.518-21.075 20.33-35.869 20.33z" />
<glyph unicode="&#xe914;" glyph-name="empty" horiz-adv-x="906" d="M453 89.881c-61.83 0-119.826 16.638-169.946 45.584l414.060 539.916c60.769-62.178 98.34-147.336 98.34-241.18 0-189.865-153.618-344.32-342.454-344.32zM110.546 434.201c0 189.865 153.618 344.32 342.454 344.32 55.787 0 108.436-13.573 155.021-37.453l-410.713-535.573c-53.92 60.867-86.762 140.982-86.762 228.706zM764.965 763.871l81.471 106.228c19.067 24.336 14.637 59.645-9.821 78.472-23.972 18.449-58.25 14.106-76.931-9.73l-83.36-108.705c-65.961 37.764-142.141 59.456-223.324 59.456-249.737 0-452.923-204.293-452.923-455.391 0-123.522 49.236-235.648 128.928-317.763l-69.441-90.556c-19.067-24.313-14.648-59.634 9.81-78.449 23.983-18.449 58.261-14.117 76.942 9.73l68.822 89.723c69.165-43.107 150.658-68.075 237.862-68.075 249.737 0 452.923 204.293 452.923 455.391 0 129.62-54.218 246.655-140.958 329.67z" />
<glyph unicode="&#xe915;" glyph-name="ico" horiz-adv-x="1117" d="M974.305 936.726h-831.609c-78.508 0-142.741-62.888-142.741-139.777v-467.951c0-76.866 64.233-139.777 142.741-139.777h124.113v-180.79c0-44.344 55.312-65.928 86.465-33.756l193.033 214.547h427.997c78.519 0 142.741 62.911 142.741 139.777v467.951c0 76.889-64.222 139.777-142.741 139.777z" />
<glyph unicode="&#xe916;" glyph-name="alert" horiz-adv-x="1060" d="M74.041 63.425c0-9.206 2.525-18.437 7.574-26.9 9.419-15.814 25.223-24.871 43.357-24.871h810.108c18.158 0 33.962 9.058 43.381 24.896 9.443 15.838 10.026 34.3 1.651 50.683l-404.823 768.78c-9.128 17.917-25.951 28.336-45.25 28.336s-36.147-10.419-45.032-27.89l-405.309-769.695c-3.763-7.375-5.656-15.343-5.656-23.337zM1060.124 63.177c0-22.842-6.118-45.56-18.231-65.902-22.844-38.383-62.777-61.275-106.814-61.275h-810.108c-44.012 0-83.946 22.891-106.789 61.275-22.868 38.383-24.397 85.082-4.103 124.851l405.333 769.67c21.338 41.897 63.797 68.204 110.625 68.204 46.804 0 89.286-26.307 110.892-68.674l404.775-768.755c9.637-18.907 14.42-39.175 14.42-59.394zM533.524 280.354c19.155 0.561 34.030 14.119 36.892 32.993l35.733 279.237c3.287 21.801-2.743 43.747-16.53 60.329-13.787 16.631-33.865 26.166-55.077 26.166-21.993 0-42.544-10.12-56.378-27.751-13.834-17.655-19.108-40.455-14.497-62.622l32.611-278.408c3.666-17.533 18.493-29.945 36.726-29.945h0.52zM534.543 244.106c-35.010 0-63.445-30.486-63.445-67.965s28.435-67.965 63.445-67.965c34.986 0 63.422 30.486 63.422 67.965s-28.435 67.965-63.422 67.965z" />
<glyph unicode="&#xe917;" glyph-name="home" horiz-adv-x="1104" d="M579.844 946.752c-14.514 17.664-41.175 17.664-55.638 0l-504.089-571.143c-19.816-24.167-3.037-60.878 27.845-60.878h138.658c20.022 0 36.286-16.64 36.286-37.12v-304.541c0-20.48 16.264-37.069 36.337-37.069h155.128c10.139 0 18.426 8.141 18.426 18.279v283.447c0 12.851 10.448 23.245 23.367 23.245h161.407c12.97 0 23.47-10.394 23.47-23.296v-283.396c0-10.138 8.235-18.279 18.375-18.279h185.341c20.073 0 36.337 16.589 36.337 37.069v304.541c0 20.48 16.264 37.12 36.337 37.12h138.658c30.83 0 47.609 36.711 27.793 60.878l-504.038 571.143z" />
<glyph unicode="&#xe918;" glyph-name="lang" d="M911.24 237.613h-156.831c16.31 57.036 25.949 117.809 28.339 179.97h179.348c-4.222-63.625-21.592-124.669-50.857-179.97v0zM831.002 129.149c-54.385-54.357-120.24-93.087-192.092-114.033 16.194 18.633 31.925 40.060 46.596 63.837 18.681 30.271 34.875 63.105 48.408 97.828h138.536c-12.589-16.667-26.431-32.603-41.449-47.632v0zM542.441 9.336v167.446h125.658c-10.16-23.142-21.631-45.205-34.393-65.918-31.867-51.64-65.913-84.937-91.265-101.527v0zM721.847 417.583c-2.603-62.662-13.167-123.609-30.961-179.97h-148.464v179.97h179.426zM542.441 658.366h148.464c17.775-56.361 28.339-117.308 30.942-179.951h-179.406v179.951zM542.441 886.643c25.351-16.571 59.397-49.887 91.265-101.527 12.762-20.714 24.233-42.777 34.412-65.918h-125.677v167.446zM831.002 766.81c15.018-15.010 28.86-30.946 41.449-47.613h-138.536c-13.534 34.722-29.728 67.556-48.408 97.847-14.671 23.758-30.402 45.185-46.596 63.818 71.851-20.945 137.707-59.675 192.092-114.052v0zM911.24 658.366c29.265-55.301 46.635-116.345 50.857-179.951h-179.348c-2.391 62.142-12.030 122.915-28.339 179.951h156.831zM481.559 719.197h-125.658c10.141 23.142 21.631 45.205 34.412 65.918 31.848 51.64 65.894 84.956 91.245 101.527v-167.446zM481.559 478.415h-179.387c2.583 62.662 13.129 123.59 30.923 179.951h148.464v-179.951zM481.559 237.613h-148.464c-17.794 56.361-28.339 117.308-30.923 179.97h179.387v-179.97zM481.559 9.336c-25.351 16.59-59.397 49.887-91.245 101.527-12.782 20.714-24.272 42.777-34.412 65.918h125.658v-167.446zM193.017 129.168c-15.057 15.010-28.86 30.946-41.468 47.613h138.536c13.553-34.722 29.728-67.556 48.428-97.828 14.652-23.778 30.383-45.205 46.577-63.837-71.851 20.945-137.687 59.675-192.072 114.052v0zM112.78 237.613c-29.284 55.301-46.654 116.345-50.876 179.97h179.348c2.391-62.161 12.030-122.935 28.339-179.97h-156.812zM112.76 658.366h156.831c-16.31-57.036-25.949-117.809-28.339-179.951h-179.348c4.222 63.606 21.592 124.65 50.857 179.951v0zM193.017 766.81c54.385 54.376 120.221 93.107 192.072 114.052-16.194-18.633-31.925-40.060-46.577-63.818-18.7-30.29-34.875-63.124-48.428-97.847h-138.536c12.608 16.667 26.412 32.603 41.468 47.613v0zM874.032 809.838c-95.063 95.014-220.952 148.023-355.092 149.795-2.352 0.212-4.665 0.366-6.94 0.366s-4.588-0.154-6.94-0.366c-134.159-1.773-260.029-54.781-355.092-149.795-96.701-96.652-149.968-225.156-149.968-361.848s53.267-265.196 149.968-361.848c95.063-95.014 220.932-148.023 355.111-149.795 2.333-0.212 4.646-0.347 6.921-0.347s4.588 0.135 6.94 0.347c134.159 1.773 260.029 54.781 355.092 149.795 96.701 96.652 149.968 225.156 149.968 361.848s-53.267 265.196-149.968 361.848v0z" />
<glyph unicode="&#xe919;" glyph-name="voltar1" d="M114.76 846.222h794.482c71.414 0 111.817-77.977 68.385-131.944l-390.717-632.336c-34.181-42.495-101.215-42.96-136.025-0.932l-403.765 632.336c-44.573 53.812-4.334 132.876 67.64 132.876z" />
<glyph unicode="&#xe91a;" glyph-name="Group-18" horiz-adv-x="1382" d="M1207.75 430.236c-7.313-15.449-182.298-342.728-529.415-342.728-356.927 0-510.596 331.108-516.928 345.222l-9.142 20.257 8.651 20.614c6.154 13.935 152.019 339.701 517.419 339.701 329.011 0 519.961-319.265 527.898-332.043l15.162-25.11-13.646-25.912zM1338.498 523.909l-15.162 24.888c-24.749 41.005-252.31 398.514-645.001 398.514-369.547 0-582.124-277.103-643.663-423.58l-8.651-20.569-22.431-54.138 32.732-73.906c7.848-16.607 194.785-426.429 642.013-426.429 419.313 0 628.056 372.469 650.308 415.121l13.646 25.912 36.121 68.252-39.911 65.937zM906.243 557.253l-10.054 6.687c-21.679-55.919-84.605-83.698-140.53-61.977-41.158 15.932-68.582 55.2-69.39 99.316 0.359 44.878 28.905 84.775 71.32 99.585-132.675 48.828-279.758-19.163-328.591-151.824s19.165-279.727 151.841-328.555c132.675-48.783 279.758 19.163 328.591 151.824 22.038 59.913 20.916 125.884-3.187 184.944z" />
<glyph unicode="&#xe91b;" glyph-name="ic_change1" d="M581.898 902.656c243.735-10.514 437.9-207.219 442.036-447.819 1.963-115.426-39.805-225.966-117.519-311.689-77.117-85.046-182.751-138.286-297.44-149.903-19.671-1.987-39.417 4.392-54.176 17.518-14.938 13.295-23.501 32.278-23.501 52.099 0 35.853 27.383 65.747 63.701 69.522 82.633 8.564 157.831 48.016 211.753 111.092 54.564 63.834 80.961 145.047 74.414 228.659-12.116 153.869-139.019 278.646-295.193 290.249-90.375 6.71-176.637-22.948-242.906-83.523-23.553-21.528-43.62-46.419-59.782-74.106l76.833-46.014c18.678-11.191 29.495-31.498 28.353-53.026-1.194-21.514-14.244-40.54-34.049-49.656l-255.769-117.684c-17.872-8.226-38.64-7.152-55.542 2.869-16.901 10.028-27.592 27.591-28.592 47.008l-14.445 279.507c-0.045 1.008-0.075 2.009-0.075 3.002 0 20.491 10.862 39.466 28.853 50.046 18.872 11.095 42.269 11 61.051-0.243l71.682-42.931c21.299 35.67 47.539 68.425 78.162 97.561 92.241 87.732 213.754 133.003 342.15 127.463z" />
<glyph unicode="&#xe91c;" glyph-name="icone_linhas-01-01" horiz-adv-x="976" d="M751.96 679.226c0-155.071-125.572-280.774-280.457-280.774-154.895 0-280.457 125.703-280.457 280.774s125.561 280.774 280.457 280.774c154.885 0 280.457-125.703 280.457-280.774zM493.88-64c202.577 0 379.446 109.511 472.546 271.237-46.801 101.986-126.257 186.424-225.248 240.753-61.871-72.473-154.753-118.658-258.459-118.658-103.728 0-196.621 46.195-258.492 118.669-91.902-50.433-166.916-126.866-214.653-219.182 89.398-173.499 272.854-292.818 484.306-292.818z" />
<glyph unicode="&#xe91d;" glyph-name="download" horiz-adv-x="819" d="M477.766 960c37.703 0 68.267-30.564 68.267-68.267v-341.333h199.954c60.492 0 94.715-60.154 57.926-101.785l-330.96-487.802c-28.953-32.781-85.735-33.141-115.221-0.719l-342.013 487.802c-37.756 41.512-3.671 102.504 57.295 102.504h199.953v341.333c0 37.703 30.564 68.267 68.267 68.267h136.533z" />
<glyph unicode="&#xe91e;" glyph-name="Group-8" horiz-adv-x="1664" d="M1263.43 50.355c5.471 10.682 11.099 21.217 16.57 31.826-116.926 69.359-255.345 109.819-403.768 109.819-158.819 0-306.304-46.166-428.232-124.817 33.53-43.020 66.826-86.26 99.887-129.646 93.791 59.555 206.73 94.601 328.345 94.601 122.709 0 236.43-35.631 330.612-96.137 18.289 38.338 37.125 76.529 56.587 114.355zM1472 427.572c-168.606 94.279-364.476 148.428-573.398 148.428-238.041 0-459.321-70.32-642.602-190.338 34.061-43.097 67.967-86.342 101.565-129.662 154.935 99.62 340.996 157.923 541.037 157.923 178.724 0 346.171-46.583 490.215-127.436 26.878 47.399 54.683 94.427 83.183 141.085zM1666.837 752.143c-230.374 127.456-497.821 200.704-783.020 200.704-327.849 0-632.291-96.693-883.872-261.408 35.424-42.859 70.691-85.792 105.801-128.8 222.205 143.211 489.967 226.987 778.071 226.987 250.717 0 485.961-63.541 689.158-174.347 30.633 45.995 61.972 91.616 93.862 136.864z" />
<glyph unicode="&#xe91f;" glyph-name="lapis_quebrado" horiz-adv-x="731" d="M213.266 280.685c41.545-27.297 57.461-75.308 60.884-94.647l-133.881-98.363c-14.102 27.121-31.949 35.518-51.2 39.205l24.81 169.808c15.828 4.476 58.105 11.088 99.387-16.004v0zM314.408 533.262l-143.419-33.090-107.783-172.003-51.873-388.125 313.051 213.753 171.096 261.208-140.464-22.206-40.609 140.464zM453.18 808.969c-5.003 0-9.684-0.293-14.014-0.731l42.481 65.799c15.887 12.229 34.816 18.9 55.676 18.695l3.131-0.029c20.451-1.053 40.17-7.607 57.403-19.134 33.47-21.153 64.688-66.15 57.49-108.515l-49.942-73.465c-8.982 29.374-27.56 64.512-66.033 89.761-33.031 21.68-63.137 27.619-86.192 27.619zM631.766 926.612c-28.175 18.725-60.943 28.877-94.91 29.345h-0.117c-35.606 0-70.422-12.405-98.158-35.196l-4.857-4.301-200.236-305.766 139.469 25.483 43.856-140.932 149.27 28.496 148.1 215.508 2.926 12.551c14.365 74.723-34.172 143.009-85.343 174.811z" />
<glyph unicode="&#xe920;" glyph-name="stream" horiz-adv-x="1342" d="M831.397 48.374c-22.457 180.895-103.706 343.464-235.026 470.369-128 123.763-290.816 200.916-470.863 223.303v105.649h1090.984v-799.32h-385.095zM80.311 951.542c-32.415 0-58.756-26.271-58.756-58.721v-248.020l4.555-0.035c189.228-1.942 366.098-73.234 498.052-200.739 134.638-130.083 209.108-305.894 209.602-494.98v-4.59h527.96c32.415 0 58.721 26.306 58.721 58.721v889.644c0 32.45-26.306 58.721-58.721 58.721h-1181.414zM534.78-50.936h97.351c-7.733 155.471-74.152 301.162-187.498 410.871-113.629 109.886-261.72 171.22-417.615 173.233v-97.351c131.284-2.436 254.058-53.53 348.69-144.455 95.055-91.207 151.34-212.498 159.073-342.298zM318.331-50.936h93.466c-7.415 99.787-50.741 192.971-122.456 263.097-71.927 70.303-164.864 109.886-262.321 111.863v-95.691c153.882-4.908 276.48-123.021 291.31-279.27zM209.363-50.972c-4.661 86.758-93.007 169.737-183.19 175.916v-175.916h183.19z" />
<glyph unicode="&#xe921;" glyph-name="stream2" horiz-adv-x="1306" d="M81.081 935.543c-31.418 0-56.855-25.437-56.855-56.855v-240.173h4.376c183.181-1.88 354.43-70.907 482.226-194.361 130.36-125.985 202.429-296.174 202.976-479.286v-4.411h511.116c31.418 0 56.855 25.47 56.855 56.855v861.376c0 31.418-25.437 56.855-56.855 56.855h-1143.84zM521.088-35.084h94.257c-7.487 150.531-71.796 291.592-181.54 397.815-110.019 106.394-253.37 165.78-404.312 167.729v-94.257c127.079-2.358 245.951-51.83 337.576-139.865 92.035-88.309 146.532-205.746 154.019-331.422zM311.519-35.084h90.496c-7.179 96.617-49.129 186.839-118.531 254.737-69.676 68.069-159.659 106.394-253.985 108.309v-92.651c148.992-4.752 267.661-119.113 282.019-270.396zM206.049-35.12c-4.546 84.002-90.051 164.343-177.403 170.326v-170.326h177.403z" />
<glyph unicode="&#xe922;" glyph-name="Camera" horiz-adv-x="1344" d="M1221.162 560.311c0-21.471-18.168-37.987-37.987-37.987h-90.839c-21.471 0-37.987 16.516-37.987 37.987v61.11c0 21.471 18.168 37.987 37.987 37.987h90.839c21.471 0 37.987-16.516 37.987-37.987v-61.11zM672.826 81.343c-163.51 0-297.29 132.129-297.29 295.639s133.781 295.639 297.29 295.639c165.161 0 297.29-132.129 297.29-295.639 0-161.858-132.129-295.639-297.29-295.639zM1236.026 796.491h-218.013l-130.477 130.477c0 0 0 0-1.652 0v0c-19.819 19.819-46.245 33.032-75.974 33.032h-270.865c-31.381 0-59.458-13.213-79.277-34.684v0l-127.174-127.174h-222.968c-59.458 0-109.006-46.245-109.006-105.703v-645.781c1.652-61.11 49.548-110.658 109.006-110.658h1124.748c59.458 0 109.006 47.897 109.006 107.355v647.432c0 59.458-47.897 105.703-107.355 105.703zM672.826 253.111c-67.716 0-123.871 54.503-123.871 122.219s54.503 122.219 123.871 122.219 123.871-54.503 123.871-122.219-56.155-122.219-123.871-122.219zM672.826 598.298c-123.871 0-222.968-100.748-222.968-222.968 0-123.871 100.748-222.968 222.968-222.968 123.871 0 222.968 100.748 222.968 222.968s-99.097 222.968-222.968 222.968z" />
<glyph unicode="&#xe923;" glyph-name="voltar2" horiz-adv-x="853" d="M28.278 845.24v-794.482c0-71.414 77.977-111.817 131.944-68.385l632.336 390.717c42.495 34.181 42.96 101.215 0.932 136.025l-632.336 403.765c-53.812 44.573-132.876 4.334-132.876-67.64z" />
<glyph unicode="&#xe924;" glyph-name="download_Prancheta_1" d="M642.048 561.664l-63.488-63.488v325.632c0 18.432-14.336 32.768-32.768 32.768h-67.584c-18.432 0-32.768-14.336-32.768-32.768v-325.632l-63.488 63.488c-16.384 16.384-43.008 16.384-59.392 0l-36.864-34.816c-16.384-16.384-16.384-43.008-2.048-59.392 0 0 0 0 0 0l174.080-174.080c12.288-12.288 30.72-18.432 47.104-18.432 2.048 0 2.048 0 4.096 0 18.432 0 34.816 6.144 49.152 18.432l174.080 174.080c16.384 16.384 16.384 43.008 0 59.392 0 0 0 0 0 0l-32.768 32.768c-14.336 18.432-40.96 18.432-57.344 2.048zM828.416 311.808v-155.648h-634.88v155.648c0 14.336-12.288 26.624-26.624 26.624h-63.488c-14.336 0-26.624-12.288-26.624-26.624v-215.040c0-32.768 26.624-57.344 59.392-57.344h751.616c32.768 0 59.392 26.624 59.392 57.344 0 0 0 0 0 0v215.040c0 14.336-12.288 26.624-26.624 26.624h-63.488c-16.384 0-28.672-12.288-28.672-26.624z" />
<glyph unicode="&#xe925;" glyph-name="conta_gotas_Prancheta_1" d="M896.588 830.846v0c-51.2 51.2-135.168 53.248-188.416 0 0 0 0 0 0 0l-143.36-137.216-16.384 16.384c-22.528 22.528-59.392 22.528-81.92 0 0 0 0 0 0 0l-32.768-32.768c-12.288-12.288-12.288-28.672 0-40.96l36.864-36.864-290.816-294.912c-16.384-16.384-28.672-38.912-36.864-61.44l-6.144-18.432c-2.048-12.288-34.816-90.112-34.816-90.112-20.48-28.672-16.384-65.536 10.24-88.064 12.288-12.288 30.72-20.48 49.152-20.48 12.288 0 24.576 2.048 36.864 8.192l71.68 30.72c10.24 6.144 22.528 10.24 32.768 12.288 28.672 8.192 53.248 22.528 71.68 43.008l284.672 288.768 38.912-38.912c10.24-12.288 28.672-12.288 40.96 0 0 0 0 0 0 0l32.768 32.768c22.528 22.528 22.528 59.392 0 81.92l-16.384 16.384 141.312 137.216c51.2 57.344 51.2 141.312 0 192.512zM333.388 161.15v0 0c-14.336-14.336-30.72-24.576-47.104-28.672s-30.72-10.24-45.056-18.432c0 0-71.68-30.72-75.776-30.72-4.096-2.048-10.24-2.048-16.384 2.048-8.192 8.192-6.144 10.24-2.048 20.48 0 0 38.912 88.064 43.008 104.448l6.144 18.432c4.096 14.336 12.288 26.624 22.528 38.912l290.816 292.864 110.592-110.592-286.72-288.768zM210.508 171.39c-6.144-14.336-12.288-30.72-20.48-45.056 12.288 4.096 24.576 10.24 36.864 14.336 0 0 2.048 2.048 6.144 2.048l6.144 2.048c4.096 2.048 8.192 4.096 10.24 4.096 2.048 2.048 6.144 2.048 8.192 2.048l6.144 2.048c2.048 0 6.144 2.048 10.24 2.048 12.288 2.048 22.528 8.192 32.768 18.432l2.048 2.048 112.64 102.4-106.496 24.576-75.776-69.632c-2.048-4.096-6.144-6.144-8.192-10.24 0-2.048 0-2.048-2.048-2.048-2.048-4.096-4.096-6.144-4.096-10.24l-6.144-18.432c-2.048-4.096-4.096-12.288-8.192-20.48z" />
<glyph unicode="&#xe926;" glyph-name="relogio_Prancheta_1" d="M617.78 544.391l-98.509-96.666c-8.57 3.25-18.477 5.191-28.819 5.324l-0.058 0.001c-0.306 0.004-0.668 0.006-1.030 0.006-45.451 0-82.363-36.557-82.937-81.872l-0.001-0.054c0-46.374 37.594-83.968 83.968-83.968s83.968 37.594 83.968 83.968v0c-0.134 13.056-3.453 25.307-9.216 36.053l0.204-0.417 96.256 94.822c5.118 5.297 8.271 12.52 8.271 20.48s-3.153 15.183-8.279 20.488l0.008-0.008c-5.655 5.42-13.343 8.758-21.811 8.758s-16.157-3.337-21.822-8.768l0.011 0.011zM512.103 64.544c-1.787-0.036-3.893-0.056-6.005-0.056-175.408 0-318.031 140.368-321.67 314.904l-0.006 0.34c3.529 174.853 146.106 315.247 321.474 315.247 2.182 0 4.359-0.022 6.53-0.065l-0.325 0.005c1.906 0.041 4.154 0.064 6.406 0.064 175.328 0 317.86-140.42 321.269-314.932l0.005-0.319c-3.644-174.875-146.267-315.243-321.675-315.243-2.111 0-4.218 0.020-6.32 0.061l0.315-0.005zM566.375 783.392v37.683h73.523v102.4h-263.578v-102.4h81.92v-37.683c-205.88-22.804-365.055-194.099-368.635-403.3l-0.005-0.361c4.561-225.859 188.73-407.206 415.255-407.206 2.548 0 5.091 0.023 7.628 0.069l-0.381-0.005c2.095-0.038 4.567-0.060 7.043-0.060 226.523 0 410.692 181.344 415.248 406.777l0.007 0.425c-3.667 209.575-162.778 380.875-366.766 403.695l-1.874 0.17z" />
<glyph unicode="&#xe927;" glyph-name="Caminho-49285" horiz-adv-x="1908" d="M1222.461 828.309c-40.864-0.45-73.817-33.682-73.817-74.61 0-0.283 0.002-0.566 0.005-0.849v0.043c-0.003-0.239-0.004-0.522-0.004-0.806 0-40.928 32.953-74.159 73.774-74.609h243.761c160.159-0.578 290.246-128.518 294.281-287.783l0.008-0.375c0.108-2.969 0.17-6.456 0.17-9.959 0-160.335-128.994-290.542-288.864-292.503l-0.185-0.002h-1029.77c-160.131 0.577-290.202 128.472-294.281 287.699l-0.008 0.379c-0.107 2.957-0.168 6.43-0.168 9.918 0 160.334 128.993 290.541 288.862 292.503l0.185 0.002h283.91v-124.223c0-14.746 21.879-23.402 33.66-14.947l248.446 195.030c4.671 3.379 7.674 8.812 7.674 14.947s-3.004 11.568-7.62 14.91l-0.054 0.037-248.446 189.22c-17.752 15.067-34.021 6.412-33.66-12.462v-111.56h-283.95c-241.696-2.748-436.57-199.319-436.57-441.406 0-1.672 0.009-3.342 0.028-5.009l-0.002 0.254c-0.016-1.414-0.026-3.083-0.026-4.755 0-242.087 194.874-438.659 436.311-441.404l0.259-0.002h1035.22c241.713 2.725 436.61 199.306 436.61 441.407 0 1.672-0.009 3.341-0.028 5.008l0.002-0.253c0.016 1.413 0.026 3.083 0.026 4.755 0 242.101-194.896 438.681-436.352 441.405l-0.258 0.002z" />
<glyph unicode="&#xe928;" glyph-name="Caminho-49286" horiz-adv-x="2210" d="M511.175 786.171c-46.484-0.052-90.835-9.12-131.419-25.549l2.357 0.843c-122.217-47.172-207.826-162.653-210.29-298.44l-0.004-0.301q0-7.362-0.247-14.823t0.247-14.823c2.532-136.029 88.122-251.439 208.072-297.836l2.223-0.756c37.526-15.807 81.15-24.992 126.918-24.992 93.869 0 178.715 38.636 239.502 100.872l0.063 0.065 235.198 237.57-235.198 237.57c-59.784 62.029-143.588 100.554-236.39 100.554-0.362 0-0.725-0.001-1.087-0.002h0.056zM1226.156 448l235.198-237.57c60.858-62.297 145.706-100.928 239.577-100.928 45.764 0 89.383 9.182 129.116 25.803l-2.21-0.82c122.217 47.172 207.826 162.653 210.29 298.44l0.004 0.301q0 7.362 0.247 14.823t-0.247 14.823c-2.469 136.088-88.077 251.569-208.072 297.984l-2.223 0.756c-37.523 15.802-81.143 24.983-126.906 24.983-93.872 0-178.72-38.632-239.515-100.864l-0.063-0.065zM1698.874-64c-140.635 0.374-267.624 58.489-358.569 151.878l-0.107 0.111-235.198 237.619-235.198-237.619c-91.322-93.9-218.872-152.159-360.029-152.159-68.724 0-134.222 13.809-193.872 38.804l3.311-1.231c-184.417 73.224-313.474 247.899-318.69 453.355l-0.013 0.636q-0.346 10.278-0.346 20.605t0.346 20.605c5.229 206.092 134.285 380.767 315.323 452.805l3.38 1.186c56.339 23.764 121.838 37.574 190.561 37.574 141.157 0 268.706-58.258 359.916-152.042l0.113-0.116 235.198-237.57 235.198 237.57c91.329 93.895 218.882 152.15 360.041 152.15 68.719 0 134.213-13.806 193.861-38.795l-3.311 1.231c184.409-73.235 313.46-247.904 318.69-453.353l0.013-0.638q0.346-10.278 0.346-20.605t-0.346-20.605c-5.243-206.087-134.294-380.756-315.323-452.804l-3.38-1.187c-56.789-23.503-122.724-37.227-191.844-37.404h-0.070z" />
<glyph unicode="&#xe929;" glyph-name="Grupo-52853" horiz-adv-x="1873" d="M878.542 888.468v-299.79c0-39.303-31.861-71.165-71.165-71.165h-1.467c-39.303 0-71.165 31.861-71.165 71.165v299.79c0 39.303 31.861 71.165 71.165 71.165h1.467c39.303 0 71.165-31.861 71.165-71.165zM1138.164 888.468v-299.79c0-39.303-31.861-71.165-71.165-71.165h-1.467c-39.303 0-71.165 31.861-71.165 71.165v299.79c0 39.303 31.861 71.165 71.165 71.165h1.467c39.303 0 71.165-31.861 71.165-71.165zM1444.557 811.618h-167.824c-20.726 0-29.713-9.171-29.713-29.805v-90.331c0-20.726 9.171-27.512 29.713-27.512h162.505c157.233-0.568 284.94-126.187 288.87-282.551l0.007-0.365c0.106-2.92 0.167-6.35 0.167-9.794 0-155.156-123.063-281.569-276.905-286.956l-0.493-0.014h-1017.214c-157.202 0.566-284.89 126.134-288.87 282.454l-0.007 0.37c-0.104 2.889-0.164 6.284-0.164 9.692 0 144.715 107.023 264.433 246.239 284.324l1.534 0.18v-119.219c1.896-10.282 10.792-17.968 21.483-17.968 4.272 0 8.257 1.227 11.622 3.348l-0.090-0.053 181.121 191.484c4.523 3.379 7.419 8.719 7.419 14.735 0 3.924-1.232 7.56-3.331 10.543l0.039-0.058c-1.164 1.599-2.528 2.963-4.074 4.090l-0.052 0.036-181.121 185.798c-17.424 14.765-33.381 6.328-33.015-12.197v-111.699c-221.139-21.389-392.622-206.285-392.622-431.233 0-1.603 0.009-3.203 0.026-4.802l-0.002 0.244c-0.016-1.371-0.025-2.991-0.025-4.612 0-237.664 191.296-430.648 428.312-433.378l0.259-0.002h1016.205c237.305 2.629 428.664 195.613 428.664 433.29 0 1.653-0.009 3.305-0.028 4.954l0.002-0.252c0.012 1.18 0.018 2.573 0.018 3.968 0 237.676-191.355 430.658-428.408 433.288l-0.249 0.002z" />
<glyph unicode="&#xe92a;" glyph-name="onion_off-01" d="M226.702 572.217c0 112.195 38.467 160.281 160.281 160.281h330.177v86.547c0.013 0.479 0.020 1.048 0.020 1.619 0 41.047-32.831 74.427-73.666 75.312l-0.083 0.002h-500.073c-0.479 0.013-1.048 0.020-1.619 0.020-41.047 0-74.427-32.831-75.312-73.666l-0.002-0.083v-496.865c-0.013-0.479-0.020-1.048-0.020-1.619 0-41.047 32.831-74.427 73.666-75.312l0.083-0.002h86.547zM386.977 649.151c-0.479 0.013-1.048 0.020-1.619 0.020-41.047 0-74.427-32.831-75.312-73.666l-0.002-0.083v-496.865c-0.042-0.962-0.071-2.090-0.071-3.219 0-41.068 32.857-74.451 73.721-75.314l0.083-0.002h496.865c0.479-0.013 1.048-0.020 1.619-0.020 41.047 0 74.427 32.831 75.312 73.666l0.002 0.083v498.473c0.013 0.479 0.020 1.048 0.020 1.619 0 41.047-32.831 74.427-73.666 75.312l-0.083 0.002h-496.865z" />
<glyph unicode="&#xe92b;" glyph-name="onion_on-01" d="M1022.727 5.964l-954.036 954.036-67.419-67.419 69.009-69.009s0-2.543 0-3.817v-492.919c-0.011-0.478-0.017-1.042-0.017-1.607 0-40.72 32.568-73.835 73.078-74.714l0.082-0.002h85.863v321.192c-0.079 2.32-0.126 5.047-0.126 7.784 0 26.421 4.234 51.854 12.061 75.655l-0.488-1.711 71.871-71.871c-0.075-0.998-0.118-2.165-0.118-3.339s0.043-2.34 0.127-3.494l-0.009 0.154v-492.919c-0.043-0.961-0.070-2.089-0.070-3.22 0-40.404 32.064-73.318 72.133-74.688l0.126-0.003h502.459l68.054-68.054zM954.036 203.766v367.94c0.011 0.478 0.017 1.042 0.017 1.607 0 40.72-32.568 73.835-73.078 74.714l-0.082 0.002h-371.121zM715.527 730.713v85.863c0.011 0.478 0.017 1.042 0.017 1.607 0 40.72-32.568 73.835-73.078 74.714l-0.082 0.002h-377.481l162.186-162.186z" />
<glyph unicode="&#xe92c;" glyph-name="notas-01" d="M966.166 602.115l-47.391 31.594c18.43 36.86 26.329 81.618 15.797 121.111-7.899 31.594-28.961 55.29-57.923 65.821-39.493 10.531-78.986 2.633-110.58-23.696-15.797-10.531-31.594-26.329-42.126-44.759l-15.797 13.164c15.797 34.227 21.063 73.72 13.164 113.213-7.899 31.594-28.961 55.29-57.923 65.821-39.493 10.531-78.986 2.633-110.58-23.696-13.164-10.531-26.329-23.696-36.86-36.86l-84.251 52.657-84.251-134.276-39.493 131.643c-13.164 26.329-50.024 31.594-81.618 21.063-26.329-7.899-55.29-28.961-50.024-60.556l76.353-247.488-194.831-310.677 44.759-84.251 510.774-315.943 352.802 571.329v94.783zM802.929 749.554c10.531 10.531 26.329 15.797 42.126 15.797 5.266 0 7.899 0 10.531-2.633 10.531-2.633 18.43-13.164 18.43-23.696 5.266-23.696 2.633-50.024-10.531-73.72l-89.517 55.29c10.531 13.164 18.43 21.063 28.961 28.961v0zM584.402 873.299c15.797 13.164 34.227 18.43 52.657 13.164 10.531-2.633 18.43-13.164 18.43-23.696 5.266-21.063 2.633-42.126-5.266-63.189l-86.884 55.29c7.899 7.899 13.164 13.164 21.063 18.43zM576.504 88.708l-431.788 268.551 131.643 213.261 36.86-123.744 2.633-5.266 76.353-92.15c2.633-5.266 7.899-7.899 15.797-7.899 2.633 0 5.266 0 10.531 0 5.266 2.633 7.899 5.266 13.164 7.899l134.276-84.251c5.266-2.633 10.531-5.266 15.797-5.266 10.531 0 21.063 5.266 26.329 15.797 2.633 7.899 5.266 15.797 2.633 23.696s-7.899 15.797-15.797 18.43l-152.706 92.15 7.899 68.454-23.696 78.986 229.058-144.807c5.266-2.633 10.531-5.266 15.797-5.266 10.531 0 21.063 5.266 26.329 15.797 2.633 7.899 5.266 15.797 2.633 23.696s-7.899 15.797-15.797 18.43l-281.715 173.768-26.329 84.251 78.986 126.377 31.594-18.43c-15.797-34.227-21.063-73.72-13.164-113.213 2.633-7.899 5.266-13.164 7.899-18.43 7.899-15.797 26.329-21.063 42.126-13.164 2.633 2.633 7.899 5.266 10.531 7.899 7.899 10.531 7.899 21.063 2.633 31.594 0 2.633-2.633 5.266-2.633 7.899-5.266 21.063-2.633 42.126 5.266 63.189l160.604-100.048c-13.164-31.594-15.797-68.454-7.899-102.681 2.633-7.899 5.266-13.164 7.899-18.43 7.899-15.797 26.329-21.063 42.126-13.164 2.633 2.633 7.899 5.266 10.531 7.899 7.899 10.531 7.899 21.063 2.633 31.594 0 2.633-2.633 5.266-2.633 7.899-5.266 18.43-2.633 36.86 2.633 52.657l126.377-81.618-305.411-492.344z" />
<glyph unicode="&#xe92d;" glyph-name="ic_conf" d="M971.722 540.314l-96.598 7.036c-13.177 1.376-24.256 9.226-30.11 20.271l-0.101 0.209c-6.537 19.482-10.784 58.797-5.909 66.479l63.395 73.145c8.38 9.934 13.473 22.879 13.473 37.014 0 15.598-6.202 29.747-16.275 40.116l0.013-0.014-50.709 50.801c-10.532 9.724-24.662 15.688-40.186 15.688-14.016 0-26.897-4.861-37.047-12.99l0.117 0.091-73.275-63.284c-6.599-5.327-15.089-8.552-24.332-8.552-3.946 0-7.755 0.588-11.344 1.68l0.275-0.072c-20.716 10.449-37.985 24.93-51.35 42.536l-0.263 0.362-7.036 96.598c-2.619 29.225-26.777 52.018-56.352 52.463l-0.044 0.001h-71.834c-29.631-0.467-53.799-23.239-56.472-52.237l-0.017-0.226-7.036-96.598c-1.361-13.147-9.203-24.2-20.234-30.018l-0.209-0.1c-15.099-4.617-32.502-7.482-50.507-7.918l-0.238-0.005c-15.032 0-15.918 2.179-15.826 2.087l-73.275 63.192c-10.022 8.082-22.912 12.973-36.945 12.973-15.486 0-29.581-5.957-40.118-15.705l0.039 0.036-50.746-50.801c-10.065-10.38-16.269-24.554-16.269-40.177 0-14.117 5.066-27.052 13.48-37.084l-0.073 0.090 63.284-73.219c5.447-6.434 8.758-14.828 8.758-23.995 0-4.042-0.644-7.933-1.834-11.577l0.074 0.263c-10.45-20.763-24.959-38.066-42.608-51.442l-0.364-0.264-96.598-6.98c-29.209-2.668-51.983-26.793-52.499-56.345l-0.001-0.051v-71.834c0.4-29.662 23.233-53.866 52.282-56.436l96.817-7.144c13.141-1.281 24.208-9.092 30.019-20.106l0.1-0.207c4.692-13.572 7.401-29.214 7.401-45.488 0-7.46-0.569-14.786-1.667-21.939l0.101 0.8-63.284-73.090c-8.361-9.94-13.441-22.881-13.441-37.009 0-15.594 6.189-29.742 16.244-40.122l50.786-50.786c10.485-9.736 24.582-15.71 40.073-15.71 14.041 0 26.935 4.908 37.062 13.101l-0.111-0.087 73.182 63.192c6.655 5.358 15.209 8.6 24.521 8.6 3.909 0 7.685-0.571 11.249-1.635l-0.278 0.071c20.723-10.527 38.011-25.028 51.443-42.63l0.263-0.36 6.851-96.506c2.652-29.229 26.807-52.020 56.386-52.499l0.048-0.001h71.797c29.65 0.451 53.834 23.252 56.472 52.276l0.016 0.224 6.943 96.506c1.348 13.182 9.199 24.27 20.252 30.111l0.209 0.101c15.111 4.586 32.532 7.442 50.549 7.899l0.252 0.005c0.903 0.077 1.954 0.121 3.015 0.121 4.561 0 8.933-0.809 12.981-2.291l-0.262 0.084 73.219-63.247c9.913-8.45 22.872-13.59 37.031-13.59 15.568 0 29.684 6.214 40.004 16.297l50.79 50.79c10.026 10.373 16.204 24.52 16.204 40.11 0 14.123-5.070 27.061-13.489 37.095l0.073-0.089-63.284 73.182c-5.429 6.517-8.724 14.978-8.724 24.208 0 3.995 0.617 7.845 1.761 11.461l-0.073-0.269c10.508 20.704 25.013 37.966 42.627 51.349l0.363 0.265 96.598 7.036c29.251 2.619 52.065 26.804 52.5 56.409l0.001 0.043v71.668c-0.258 29.65-23.018 53.904-52.020 56.528l-0.222 0.016zM692.288 447.926c0-99.591-80.734-180.325-180.325-180.325s-180.325 80.734-180.325 180.325c0 99.591 80.734 180.325 180.325 180.325v0c99.531-0.147 180.178-80.793 180.325-180.311v-0.014z" />
<glyph unicode="&#xe92e;" glyph-name="block_mod" horiz-adv-x="890" d="M445.032 864.014l353.966-137.515v-307.822c0-124.097-59.103-226.923-175.543-305.727-71.867-48.566-144.977-73.961-178.357-83.975-33.446 10.014-106.883 35.541-178.881 84.302-116.178 78.739-175.085 181.434-175.085 305.4v307.822l353.966 137.515zM445.098 951.655l-435.715-169.325v-363.653c0-366.598 417.52-470.012 435.257-474.201v-0.131s0.196 0 0.393 0c0 0 0 0 0.065 0 0.131 0 0.196 0.065 0.196 0.065 16.429 3.927 435.323 107.080 435.323 474.267v363.653l-435.585 169.325zM445.032 781.741l-278.237-108.127v-253.496c0-97.327 47.453-178.815 141.115-242.239v0c51.969-35.213 105.116-56.42 137.122-67.285 31.941 10.8 84.826 31.941 136.73 67.023 93.858 63.489 141.508 145.042 141.508 242.5v253.496l-278.237 108.127zM655.265 461.352l-189.681-151.456c-9.36-7.265-20.879-11.192-32.726-11.192v0c-15.054-0.065-29.453 6.218-39.664 17.279l-96.542 104.854c-20.159 21.861-18.719 55.962 3.142 76.121s55.962 18.719 76.121-3.142l63.161-68.594 150.606 121.479c23.628 18.13 57.402 13.68 75.532-9.949s13.68-57.402-9.949-75.532z" />
<glyph unicode="&#xe92f;" glyph-name="icDc" horiz-adv-x="1351" d="M1144.5 873.316c-80.545 37.927-174.114 67.754-272.064 84.826l-6.683 0.964c-11.141-19.313-23.096-43.164-33.803-67.685l-1.919-4.93c-46.486 7.375-100.087 11.588-154.672 11.588s-108.187-4.213-160.496-12.332l5.824 0.744c-12.616 29.476-24.547 53.328-37.64 76.435l1.992-3.82c-104.748-18.169-198.379-48.039-285.891-88.836l6.925 2.899c-129.089-180.797-206.399-406.288-206.399-649.836 0-41.060 2.197-81.607 6.481-121.529l-0.432 4.958c97.655-72.874 211.27-131.417 333.885-169.524l7.961-2.131c25.695 34.192 50.002 72.846 71.033 113.47l2.167 4.602c-44.639 16.82-82.626 35.34-118.596 56.882l3.306-1.835c9.662 7.32 19.105 14.274 28.255 21.228 100.099-48.195 217.647-76.355 341.773-76.355s241.672 28.16 346.603 78.44l-4.83-2.085c9.223-7.32 18.739-14.64 28.255-21.228-32.719-19.721-70.778-38.266-110.504-53.44l-5.007-1.68c23.157-45.155 47.464-83.763 74.716-120.032l-1.515 2.107c130.663 40.059 244.37 98.569 345.023 173.617l-2.958-2.109c3.843 34.914 6.035 75.401 6.035 116.4 0 243.738-77.476 469.381-209.144 653.645l2.321-3.418zM451.146 261.068c-68.128 3.992-121.864 60.216-121.864 128.99 0 2.056 0.048 4.1 0.143 6.132l-0.011-0.287c-0.129 2.153-0.202 4.67-0.202 7.205 0 68.535 53.698 124.528 121.315 128.202l0.326 0.014c68.066-3.211 122.036-59.177 122.036-127.747 0-2.7-0.084-5.379-0.248-8.037l0.018 0.364c0.089-1.79 0.139-3.887 0.139-5.995 0-68.67-53.635-124.813-121.298-128.823l-0.354-0.017zM900.011 261.068c-68.050 3.989-121.725 60.148-121.725 128.844 0 2.107 0.051 4.203 0.15 6.285l-0.011-0.294c-0.129 2.151-0.202 4.665-0.202 7.197 0 68.586 53.778 124.612 121.468 128.21l0.32 0.014c67.88-3.239 121.689-59.062 121.689-127.452 0-2.804-0.090-5.586-0.269-8.345l0.019 0.376c0.091-1.812 0.143-3.934 0.143-6.068 0-68.631-53.604-124.742-121.229-128.75l-0.353-0.017z" />
<glyph unicode="&#xe930;" glyph-name="icTw" horiz-adv-x="1317" d="M640.486 687.849l2.831-44.259-47.538 5.365c-176.819 20.694-332.866 96.763-453.437 210.132l0.412-0.384-62.589 58.714-16.169-43.365c-10.341-26.366-16.334-56.896-16.334-88.826 0-70.044 28.842-133.351 75.297-178.694l0.050-0.049c38.075-38 29.804-43.365-36.138-20.788-13.143 5.913-28.454 9.522-44.564 9.907l-0.142 0.003c3.239-44.774 15.546-86.013 35.085-122.827l-0.81 1.672c31.296-50.423 75.66-90.094 128.408-114.865l1.837-0.775 46.644-20.788-55.212-0.894c-53.275 0-55.212-0.894-49.475-19.894 35.632-72.065 99.078-125.824 175.942-147.79l1.99-0.486 59.012-19-51.338-28.91c-73.742-40.516-161.278-65.121-254.387-67.050l-0.589-0.010c-3.244 0.126-7.053 0.198-10.879 0.198-23.808 0-46.964-2.788-69.161-8.055l2.027 0.406c52.811-32.499 113.77-59.64 178.335-78.278l5.259-1.3c68.3-19.797 146.755-31.184 227.87-31.184 144.954 0 281.415 36.363 400.758 100.465l-4.527-2.222c138.201 83.315 246.953 203.11 314.598 346.147l2.073 4.873c33.839 79.484 56.884 171.604 64.481 268.069l0.195 3.075c0 41.577 2.831 47.016 56.107 96.864 24.032 21.456 45.831 44.199 65.765 68.527l0.847 1.066c9.537 17.137 8.569 17.137-39.938 1.788-80.844-27.122-92.244-23.471-52.157 17.137 27.814 26.292 49.772 58.471 63.915 94.57l0.612 1.773c0 2.682-14.306-1.788-30.475-9.91-23.341-11.031-51.24-21.397-80.096-29.474l-3.877-0.927-51.338-15.349-46.644 29.804c-23.233 15.149-49.914 28.545-78.090 38.835l-2.754 0.88c-22.801 5.376-48.982 8.458-75.882 8.458-32.115 0-63.205-4.393-92.7-12.611l2.424 0.576c-108.299-32.754-185.795-131.658-185.795-248.661 0-4.108 0.096-8.193 0.284-12.254l-0.021 0.575z" />
<glyph unicode="&#xe931;" glyph-name="icYt" horiz-adv-x="1519" d="M759.5-64c-16.047-0.196-34.995-0.308-53.97-0.308-190.154 0-377.69 11.21-561.982 33.006l22.326-2.149c-64.883 16.535-115.415 65.419-133.997 128.043l-0.337 1.322c-20.229 102.56-31.804 220.481-31.804 341.106 0 3.861 0.012 7.719 0.036 11.575l-0.003-0.595c-0.021 3.276-0.033 7.153-0.033 11.032 0 120.607 11.575 238.511 33.675 352.66l-1.871-11.606c19.024 63.884 69.508 112.722 133.034 129.081l1.3 0.284c161.967 19.646 349.503 30.857 539.657 30.857 18.975 0 37.923-0.112 56.845-0.334l-2.875 0.027c16.036 0.196 34.98 0.307 53.95 0.307 190.132 0 377.645-11.21 561.916-33.005l-22.321 2.149c64.859-16.617 115.378-65.462 134.075-128.038l0.34-1.326c20.229-102.544 31.804-220.448 31.804-341.055 0-3.879-0.012-7.755-0.036-11.629l0.003 0.597c0.021-3.261 0.033-7.119 0.033-10.98 0-120.625-11.575-238.547-33.675-352.715l1.871 11.608c-18.957-63.93-69.516-112.788-133.123-129.004l-1.293-0.279c-162.137-19.694-349.866-30.931-540.22-30.931-18.748 0-37.471 0.109-56.167 0.326l2.842-0.026zM639.504 644.735v-393.47l399.824 196.979z" />
<glyph unicode="&#xe932;" glyph-name="icoAlert" horiz-adv-x="285" d="M234.196 945.691h-173.737c-7.29-0.099-14.327-2.698-19.93-7.362l-2.508-2.761c-3.555-3.726-5.404-8.76-5.106-13.903l29.637-510.313c1.010-13.479 12.757-23.593 26.236-22.582 0.469 0.036 107.687 0.144 107.687 0.144h0.253c14.363-1.191 27.201 8.914 29.43 23.151l35.429 513.904c-1.642 5.404-4.926 10.15-9.401 13.596-4.908 4.24-11.323 6.315-17.782 5.774zM281.047 90.268l-0.866 12.468c-6.974 70.742-66.565 124.612-137.658 124.423v0c-76.453 0.081-138.488-61.837-138.569-138.281-0.081-76.453 61.837-138.488 138.281-138.569 71.418-0.072 131.171 54.195 137.938 125.289l0.866 14.661z" />
<glyph unicode="&#xe933;" glyph-name="block_mod1" horiz-adv-x="890" d="M668.426 670.609c-123.090 123.090-322.783 123.090-445.872 0-58.926-58.926-92.317-139.458-92.317-223.263 0-174.159 141.422-314.926 315.581-314.926 83.806 0 163.683 32.737 222.609 92.317 123.090 123.090 123.090 322.783 0 445.872zM606.227 547.519l-99.519-100.174 99.519-99.519c17.023-17.023 17.023-44.522 0-61.545s-44.522-17.023-61.545 0l-99.519 100.174-99.519-99.519c-17.023-17.023-44.522-17.023-61.545 0s-17.023 44.522 0 61.545l99.519 98.864-99.519 99.519c-17.023 17.023-17.023 44.522 0 61.545s44.522 17.023 61.545 0l100.174-99.519 99.519 99.519c0.655 0.655 0.655 0.655 1.309 1.309 17.023 16.368 44.522 16.368 61.545-0.655 15.059-17.678 15.059-45.176-1.964-61.545zM446.472 34.21c-0.655 0-0.655 0-1.309 0-110.65 0-214.097 43.212-292.665 121.125-77.913 77.913-121.125 182.015-121.125 292.665s43.212 214.752 121.125 292.665c78.568 77.913 182.015 121.125 292.665 121.125s214.097-43.212 292.665-121.125c161.064-161.064 161.064-423.611 0-585.33-76.604-77.258-182.67-121.125-291.355-121.125zM445.163 80.041c0 0 0.655 0 1.309 0 96.9 0 191.182 39.284 259.274 107.376 143.386 143.386 143.386 377.125 0 520.512v0c-70.056 69.402-162.373 108.031-260.583 108.031s-190.527-37.974-259.928-108.031c-69.402-69.402-108.031-161.719-108.031-259.928s37.974-190.527 108.031-259.928c69.402-70.056 161.719-108.031 259.928-108.031 0 0 0 0 0 0z" />
</font>
</defs>
</svg>
