<svg xmlns="http://www.w3.org/2000/svg" width="29.434" height="30.885"><path fill="#4ce0aa" d="M2.901 9.695h25.814l-11.259-8.22a5.16 5.16 0 0 0-5.478 0L.698 9.71l.193.139a14 14 0 0 1 2.01-.159"/><path fill="#606060" d="M25.322 30.186H4.112a3.414 3.414 0 0 1-3.414-3.415V12.88l14.019 10.47 14.019-10.47v13.891a3.414 3.414 0 0 1-3.414 3.414"/><path fill="#606060" d="M.698 12.88h28.038L14.717 23.35Z"/><path fill="#6916a5" d="M25.322 30.186H4.112a3.414 3.414 0 0 1-3.414-3.415V12.88l14.019 10.47 14.019-10.47v13.891a3.414 3.414 0 0 1-3.414 3.414"/><path fill="#4ce0aa" d="M.698 12.88h28.038L14.717 23.35Z"/><path fill="#211256" d="M25.9 30.885H3.54A3.544 3.544 0 0 1 0 27.345V12.88a.7.7 0 0 1 1.117-.559l13.6 10.161 13.6-10.161a.7.7 0 0 1 1.117.559v14.465a3.544 3.544 0 0 1-3.534 3.54M1.4 14.275v13.07a2.145 2.145 0 0 0 2.14 2.144H25.9a2.145 2.145 0 0 0 2.142-2.144v-13.07l-12.9 9.64a.7.7 0 0 1-.836 0Z"/><path fill="#606060" d="M25.322 27.017H4.112a3.414 3.414 0 0 1-3.414-3.415V9.711l14.019 10.473L28.736 9.711v13.891a3.414 3.414 0 0 1-3.414 3.414"/><path fill="#4ce0aa" d="M25.322 27.017H4.112a3.414 3.414 0 0 1-3.414-3.415V9.711l14.019 1.161 14.019-1.161v13.891a3.414 3.414 0 0 1-3.414 3.414"/><path fill="#211256" d="M.7 10.409a.7.7 0 0 1-.413-1.263L11.566.912a5.9 5.9 0 0 1 6.261-.027l11.321 8.261a.7.7 0 0 1-.824 1.129L17.044 2.04a4.47 4.47 0 0 0-4.695.027L1.11 10.275a.7.7 0 0 1-.411.134"/><path fill="#fff" d="M14.717 19.671a.93.93 0 0 1-.556-.184l-11.906-9.1a.93.93 0 0 1-.374-.748V5.552a.93.93 0 0 1 .931-.931h23.873a.93.93 0 0 1 .931.931v4.087a.93.93 0 0 1-.378.748l-11.966 9.1a.93.93 0 0 1-.554.183"/><path fill="#211256" d="M1.881 10.763a.7.7 0 0 1-.7-.7v-4.51a1.63 1.63 0 0 1 1.632-1.63h23.872a1.63 1.63 0 0 1 1.63 1.63v4.51a.7.7 0 0 1-1.4 0v-4.51a.233.233 0 0 0-.233-.233H2.813a.233.233 0 0 0-.233.233v4.511a.7.7 0 0 1-.7.7"/><path fill="#211256" d="M25.321 27.716H4.112A4.117 4.117 0 0 1 0 23.603V9.711a.7.7 0 0 1 1.117-.559l12.931 9.661a1.12 1.12 0 0 0 1.338 0l12.931-9.661a.7.7 0 0 1 1.117.559v13.892a4.12 4.12 0 0 1-4.113 4.113M1.4 11.105v12.5a2.72 2.72 0 0 0 2.715 2.716h21.21a2.72 2.72 0 0 0 2.716-2.716v-12.5l-11.818 8.831a2.53 2.53 0 0 1-3.012 0Z"/><path fill="#211256" d="M21.993 8.856H7.292a.855.855 0 1 0 0 1.709h14.7a.855.855 0 1 0 0-1.709M22.025 13.915H7.324c-.485 0-.42.182-.42.653s.812.969 1.3.969l12.984.094a1.46 1.46 0 0 0 1.141-1.187c0-.471.183-.528-.3-.528"/></svg>